<svg width="21" height="20" viewBox="0 0 21 20" fill="none" xmlns="http://www.w3.org/2000/svg">
<path d="M4.91557 3.41579C4.91557 5.29695 6.3951 6.83159 8.20871 6.83159C10.0223 6.83159 11.5019 5.29695 11.5019 3.41579C11.5019 1.53463 10.0223 0 8.20871 0C6.3951 0 4.91557 1.53463 4.91557 3.41579Z" fill="black"/>
<path d="M2.38633 13.5147C2.38633 13.2176 2.57724 13.0196 2.8636 13.0196C3.14996 13.0196 3.34087 13.2176 3.34087 13.5147V16.4354H11.0251L10.5956 16.3364C10.4047 16.2869 10.2138 16.0889 10.2138 15.8414V13.9107C10.2138 13.6632 10.357 13.4652 10.5956 13.4157L11.5978 13.1681C11.6456 13.0196 11.6933 12.9206 11.741 12.7721L11.216 11.8315C11.1206 11.6335 11.1206 11.386 11.3115 11.2375L12.6478 9.85135C12.791 9.70283 13.0296 9.65333 13.2206 9.80184L14.1274 10.3464C14.2705 10.2969 14.366 10.2474 14.5092 10.1979L14.7478 9.15829C14.7478 9.05928 14.7955 9.00977 14.8433 8.96027C14.0319 8.26721 12.9819 7.87118 11.8842 7.87118H4.58176C2.05225 7.87118 0 9.99986 0 12.6236V16.4354H2.38633V13.5147Z" fill="black"/>
<path d="M20.0932 14.0595C19.95 14.01 19.8068 13.911 19.7591 13.713C19.7114 13.4654 19.5682 13.2179 19.4727 13.0199C19.3773 12.8714 19.3773 12.6734 19.4727 12.5249L19.95 11.6833L19.1387 10.8417L18.3273 11.3368C18.1841 11.4358 17.9932 11.4358 17.85 11.3368C17.6114 11.1882 17.3728 11.0892 17.1341 11.0397C16.991 10.9902 16.8478 10.8417 16.8001 10.6932L16.5614 9.75262H15.416L15.2728 10.6932C15.2251 10.8417 15.1296 10.9902 14.9387 11.0397L14.2228 11.3368C14.0796 11.4358 13.8887 11.3863 13.7455 11.3368L12.9342 10.8417L12.1228 11.6833L12.6001 12.5249C12.6956 12.6734 12.6956 12.8714 12.6001 13.0199C12.4569 13.2674 12.4092 13.4654 12.3137 13.713C12.266 13.8615 12.1228 14.01 11.9797 14.0595L11.0729 14.307V15.4456L11.9797 15.6931C12.1228 15.7426 12.266 15.8416 12.3137 16.0397C12.4092 16.2872 12.4569 16.5347 12.6001 16.7327C12.6956 16.8812 12.6956 17.0792 12.6001 17.2278L12.1228 18.0693L12.9342 18.9109L13.7455 18.4159C13.8887 18.3169 14.0796 18.3169 14.2228 18.4159C14.4614 18.5149 14.7001 18.6634 14.9387 18.7129C15.0819 18.7624 15.2251 18.9109 15.2728 19.0594L15.5114 20H16.6569L16.8955 19.0594C16.9432 18.9109 17.0387 18.7624 17.2296 18.7129C17.4682 18.6634 17.7069 18.5149 17.9455 18.4159C18.0887 18.3169 18.2796 18.3169 18.4228 18.4159L19.2341 18.9109L20.0455 18.0693L19.5682 17.2278C19.4727 17.0792 19.4727 16.8812 19.5682 16.7327C19.7114 16.4852 19.8068 16.2377 19.8546 15.9902C19.9023 15.8416 20.0455 15.6931 20.1886 15.6436L21 15.4456V14.2575L20.0932 14.0595ZM16.0842 16.9802C14.9387 16.9802 14.0319 16.0397 14.0319 14.8516C14.0319 13.713 14.9387 12.7229 16.0842 12.7229C17.2296 12.7229 18.1364 13.6635 18.1364 14.8516C18.1364 16.0397 17.2296 16.9802 16.0842 16.9802Z" fill="black"/>
</svg>
