<svg width="154" height="30" viewBox="0 0 154 30" fill="none" xmlns="http://www.w3.org/2000/svg">
<path d="M7.66471 15.2066C9.21314 15.2066 10.2036 15.3065 10.8086 15.4001C11.1701 15.4562 11.4352 15.7659 11.4352 16.1295V19.4722C11.4352 19.8419 11.1597 20.1524 10.7928 20.2043C10.2051 20.2872 9.27865 20.3693 8.01154 20.3693C4.55512 20.3693 3.58128 19.3993 3.58128 17.8661C3.58128 16.0201 4.806 15.2066 7.66471 15.2066ZM8.01154 22.9666C10.6922 22.9666 13.1008 22.7344 14.3456 22.5647C14.7124 22.5144 14.9849 22.2023 14.9849 21.8334V13.0474C14.9849 8.16645 11.5597 6.38298 6.65965 6.38298C2.54501 6.38298 1.44515 7.50926 1.44515 8.69811C1.44515 9.15108 1.61742 9.53188 1.81511 9.82132C2.02437 10.1299 2.43325 10.2336 2.76429 10.0605C3.46952 9.69195 4.75128 9.26163 6.59761 9.26163C9.08404 9.26163 10.915 9.81863 11.3188 11.9549C11.4194 12.4819 11.0683 12.8781 10.5319 12.8316C9.73339 12.7637 8.65127 12.7034 7.53985 12.7034C1.98005 12.7034 0 14.4869 0 17.8976C0 20.5256 1.47675 22.9666 8.01154 22.9666Z" fill="white"/>
<path fill-rule="evenodd" clip-rule="evenodd" d="M32.277 17.8039C32.277 15.0189 30.2653 13.6735 26.7785 13.2044L23.576 12.7975C21.8468 12.5787 20.9046 12.0773 20.9046 10.9825C20.9046 9.70001 22.1308 9.07392 24.5491 9.07392C27.3434 9.07392 29.1285 9.87813 29.9058 10.3745C30.2021 10.5637 30.591 10.518 30.833 10.2632C31.1181 9.96296 31.3968 9.51806 31.3968 8.98025C31.3968 7.44707 28.883 6.38298 24.5175 6.38298C19.3349 6.38298 17.3564 8.66701 17.3564 11.3269C17.3564 14.3932 19.7122 15.7072 23.0723 16.0515L25.5229 16.3333C27.785 16.5836 28.5377 17.1464 28.5377 18.3045C28.5377 19.6811 26.9997 20.1816 24.8319 20.1816C22.2268 20.1816 20.0918 19.4592 19.0309 18.9555C18.6767 18.7878 18.254 18.9198 18.0632 19.2607L17.4193 20.4081C17.2162 20.772 17.3518 21.2342 17.7249 21.4238C18.9103 22.0269 21.5042 22.9666 25.0211 22.9666C29.7004 22.9666 32.277 20.9325 32.277 17.8039Z" fill="white"/>
<path d="M42.3147 15.2066C43.8643 15.2066 44.8539 15.3065 45.4586 15.4001C45.8201 15.4562 46.0837 15.7659 46.0837 16.1295V19.4722C46.0837 19.8419 45.8116 20.1524 45.4432 20.2043C44.8539 20.2872 43.9306 20.3693 42.66 20.3693C39.2051 20.3693 38.2317 19.3993 38.2317 17.8661C38.2317 16.0201 39.4575 15.2066 42.3147 15.2066ZM42.66 22.9666C45.3441 22.9666 47.75 22.7344 48.9959 22.5647C49.3628 22.5144 49.6337 22.2023 49.6337 21.8334V13.0474C49.6337 8.16645 46.2101 6.38298 41.31 6.38298C37.195 6.38298 36.0952 7.50926 36.0952 8.69811C36.0952 9.15108 36.2678 9.53188 36.4636 9.82132C36.6759 10.1299 37.0833 10.2336 37.4143 10.0605C38.1199 9.69195 39.4009 9.26163 41.2468 9.26163C43.7344 9.26163 45.565 9.81863 45.9692 11.9549C46.0694 12.4819 45.7199 12.8781 45.1815 12.8316C44.3834 12.7637 43.3013 12.7034 42.1902 12.7034C36.6301 12.7034 34.65 14.4869 34.65 17.8976C34.65 20.5256 36.1268 22.9666 42.66 22.9666Z" fill="white"/>
<path fill-rule="evenodd" clip-rule="evenodd" d="M56.1983 21.7904V13.9552C56.1983 11.1081 57.5487 9.60596 60.2814 9.60596C62.952 9.60596 64.3644 11.1081 64.3644 13.9552V21.7904C64.3644 22.1981 64.6974 22.5286 65.1055 22.5286H67.2046C67.6147 22.5286 67.9457 22.1981 67.9457 21.7904V13.0478C67.9457 8.8862 64.7417 6.38298 60.2814 6.38298C55.8843 6.38298 52.6167 8.8862 52.6167 13.0478V21.7904C52.6167 22.1981 52.9477 22.5286 53.3581 22.5286H55.4569C55.8658 22.5286 56.1983 22.1981 56.1983 21.7904Z" fill="white"/>
<path fill-rule="evenodd" clip-rule="evenodd" d="M83.4167 1.66331C83.4167 0.533581 84.11 0 85.3389 0C86.095 0 86.7887 0.250668 87.0091 0.3451V22.3981C87.0091 22.8046 86.6781 23.1348 86.2696 23.1348H84.1562C83.7477 23.1348 83.4167 22.8046 83.4167 22.3981V1.66331Z" fill="white"/>
<path d="M104.057 15.3398C104.057 12.389 102.04 10.1606 99.1409 10.1606C96.2417 10.1606 94.2247 12.389 94.2247 15.3398C94.2247 18.2273 96.2417 20.4875 99.1409 20.4875C102.04 20.4875 104.057 18.2273 104.057 15.3398ZM107.806 15.3398C107.806 20.0172 104.057 23.6583 99.1409 23.6583C94.2247 23.6583 90.475 20.0172 90.475 15.3398C90.475 10.5679 94.2247 7.02128 99.1409 7.02128C104.057 7.02128 107.806 10.5679 107.806 15.3398Z" fill="white"/>
<path d="M123.15 15.2768C123.15 12.3893 121.164 10.2546 118.328 10.2546C115.397 10.2546 113.475 12.5149 113.475 15.2768C113.475 18.2906 115.397 20.2679 118.328 20.2679C121.164 20.2679 123.15 18.1643 123.15 15.2768ZM112.078 26.6333C112.218 26.254 112.637 26.0605 113.018 26.1972C113.874 26.5043 115.41 26.9227 117.351 26.9227C120.187 26.9227 123.181 25.9185 123.181 21.304V20.9274C122.204 22.0571 120.345 23.2817 117.792 23.2817C113.097 23.2817 109.725 20.0483 109.725 15.2768C109.725 10.5368 113.317 7.02128 118.359 7.02128C123.15 7.02128 126.742 9.81471 126.742 15.9678V20.4875C126.742 27.1427 122.929 29.8102 117.729 29.8102C115.055 29.8102 113.089 29.2593 112.035 28.8662C111.658 28.7258 111.465 28.3093 111.603 27.9319L112.078 26.6333Z" fill="white"/>
<path d="M130.636 8.78811C130.636 7.6269 131.33 7.1248 132.559 7.1248C133.315 7.1248 134.008 7.37546 134.229 7.46913V22.1745C134.229 22.5656 133.911 22.8827 133.519 22.8827H131.347C130.955 22.8827 130.636 22.5656 130.636 22.1745V8.78811ZM134.607 4.0807C134.607 5.30525 133.662 6.24688 132.433 6.24688C131.201 6.24688 130.259 5.30832 130.258 4.08108C130.258 2.85691 131.204 1.91528 132.433 1.91489C133.664 1.91489 134.607 2.85384 134.607 4.0807Z" fill="white"/>
<path fill-rule="evenodd" clip-rule="evenodd" d="M138.062 13.9507C138.062 9.77567 141.34 7.26438 145.751 7.26438C150.226 7.26438 153.441 9.77567 153.441 13.9507V22.744C153.441 23.1398 153.118 23.4615 152.72 23.4615H150.569C150.171 23.4615 149.848 23.1398 149.848 22.744V14.8608C149.848 12.0044 148.43 10.4977 145.751 10.4977C143.01 10.4977 141.655 12.0044 141.655 14.8608V22.744C141.655 23.1398 141.332 23.4615 140.934 23.4615H138.783C138.385 23.4615 138.062 23.1398 138.062 22.744V13.9507Z" fill="white"/>
</svg>
