<svg width="14" height="14" viewBox="0 0 14 14" fill="none" xmlns="http://www.w3.org/2000/svg">
<path d="M8.15411 6.8L13.9578 0.273252C14.0551 0.164785 13.9733 0 13.8229 0H12.0586C11.9547 0 11.8552 0.0438036 11.7867 0.118896L7 5.50258L2.21332 0.118896C2.147 0.0438036 2.0475 0 1.94138 0H0.177052C0.0267085 0 -0.0550963 0.164785 0.0421849 0.273252L5.84589 6.8L0.0421849 13.3267C0.020393 13.3509 0.00641268 13.3805 0.00190318 13.4119C-0.00260632 13.4434 0.00254441 13.4754 0.0167444 13.5042C0.0309444 13.5329 0.0535972 13.5573 0.0820128 13.5743C0.110428 13.5912 0.143414 13.6002 0.177052 13.6H1.94138C2.04529 13.6 2.14479 13.5562 2.21332 13.4811L7 8.09742L11.7867 13.4811C11.853 13.5562 11.9525 13.6 12.0586 13.6H13.8229C13.9733 13.6 14.0551 13.4352 13.9578 13.3267L8.15411 6.8Z" fill="#0F766E"/>
</svg>
