<svg width="10" height="10" viewBox="0 0 10 10" fill="none" xmlns="http://www.w3.org/2000/svg">
<path d="M5.70807 5L9.29694 0.72207C9.35709 0.650977 9.30651 0.542969 9.21354 0.542969H8.12252C8.05826 0.542969 7.99674 0.57168 7.95436 0.620898L4.9944 4.14961L2.03444 0.620898C1.99342 0.57168 1.9319 0.542969 1.86627 0.542969H0.775256C0.682287 0.542969 0.631701 0.650977 0.691858 0.72207L4.28072 5L0.691858 9.27793C0.678382 9.29378 0.669737 9.31316 0.666948 9.33377C0.66416 9.35438 0.667345 9.37537 0.676126 9.39422C0.684907 9.41308 0.698915 9.42902 0.716486 9.44016C0.734058 9.45129 0.754455 9.45715 0.775256 9.45703H1.86627C1.93053 9.45703 1.99205 9.42832 2.03444 9.3791L4.9944 5.85039L7.95436 9.3791C7.99537 9.42832 8.0569 9.45703 8.12252 9.45703H9.21354C9.30651 9.45703 9.35709 9.34902 9.29694 9.27793L5.70807 5Z" fill="#8C8C8C"/>
</svg>
