<svg width="34" height="37" viewBox="0 0 34 37" fill="none" xmlns="http://www.w3.org/2000/svg">
<path d="M9.72013 1.62205C10.0196 3.31445 10.9274 3.75115 9.13473 4.86615C8.13339 2.66354 7.10776 3.48515 5.7708 4.86615C5.34777 5.3031 4.39999 6.09718 4.47713 6.78312C4.55254 7.45388 5.4154 8.05054 5.915 8.40517V8.55263L4.85982 9.66653L2.84162 8.84754C2.43232 9.8381 0.580488 12.7408 1.24158 13.7859C1.5539 14.2797 2.60582 14.4723 3.13432 14.5984L2.84162 16.2205L0.73466 16.3721L0.5 17.6951V21.2341H2.84162L3.13432 23.1511L1.08541 23.7409L2.84162 28.7545L5.03689 27.7223L5.915 29.0494V29.1969C5.41959 29.5486 4.52452 30.1586 4.4394 30.8189C4.29069 31.9725 6.79176 33.7687 7.52486 34.5054H7.67122C8.1367 34.0364 8.95426 32.8116 9.71506 33.205C11.0654 33.9032 9.11701 35.1969 9.91933 36.0335C10.7355 36.8845 13.1281 37.283 14.1999 36.7758C14.6334 36.5707 14.6859 35.9529 15.1663 35.8168C15.6273 35.6861 16.2707 35.942 16.745 35.98V36.8648H20.2574V33.0308C10.2831 33.4613 2.75791 23.0683 6.56669 13.5662C7.4886 11.2663 8.91197 9.34158 10.7446 7.69347C11.4633 7.04711 13.3379 6.38496 13.7297 5.54588C14.3512 4.2145 13.818 1.47432 13.818 0C12.363 0.0752416 10.9812 0.953482 9.72013 1.62205Z" fill="#0F766E"/>
<path fill-rule="evenodd" clip-rule="evenodd" d="M19.6658 0C19.6658 0.964339 19.7035 1.95564 19.7416 2.9555C19.8209 5.03608 19.9016 7.15371 19.6463 9.14246C19.5743 9.70289 19.337 10.2022 19.0971 10.7073C18.8263 11.277 18.5522 11.854 18.5081 12.534C18.4741 13.0598 18.6268 13.5394 18.7773 14.0121C18.91 14.4288 19.041 14.8402 19.041 15.2732C19.041 15.6733 18.9094 16.0762 18.776 16.4843C18.646 16.882 18.5144 17.2848 18.5012 17.6951C18.4852 18.1984 18.6272 18.6564 18.7683 19.1111C18.8879 19.4968 19.0068 19.8802 19.0278 20.2868C19.0551 20.813 18.9207 21.2974 18.7854 21.7851C18.6143 22.4017 18.4418 23.0234 18.5929 23.7409C19.0545 25.9343 20.6508 26.9607 22.2729 28.0037C23.3836 28.7179 24.5064 29.4399 25.2852 30.5497C25.5748 30.9624 25.5514 31.5414 25.5303 32.0625C25.525 32.1935 25.5198 32.3209 25.5198 32.441V36.8648H26.9833V32.2935C26.9833 32.1756 26.9776 32.049 26.9717 31.918C26.9488 31.4085 26.9228 30.8328 27.2179 30.445C27.962 29.4672 29.0293 28.7904 30.0929 28.1159C31.7024 27.0953 33.3032 26.0801 33.7623 24.0358C33.9347 23.2685 33.7679 22.5706 33.6044 21.886C33.4706 21.326 33.3389 20.7748 33.3967 20.2019C33.4371 19.801 33.5291 19.4321 33.6206 19.0655C33.7527 18.5357 33.8836 18.0106 33.8561 17.4002C33.8408 17.0599 33.7359 16.7223 33.6316 16.3866C33.5069 15.9852 33.383 15.5864 33.4137 15.1883C33.4473 14.7523 33.5399 14.3487 33.6316 13.9491C33.7785 13.3087 33.923 12.679 33.8179 11.9442C33.7406 11.4039 33.497 10.926 33.2561 10.4534C33.0153 9.98102 32.7771 9.51388 32.7105 8.995C32.4593 7.03794 32.5386 4.95426 32.6165 2.907C32.6539 1.92359 32.691 0.948534 32.691 0H31.2275V7.52041C31.2275 7.71657 31.2307 7.90631 31.2339 8.09C31.2571 9.45978 31.2746 10.4939 29.9104 11.3543V0H28.3005V9.43738C28.3005 9.67982 28.3065 9.91539 28.3123 10.1441C28.3479 11.5449 28.3769 12.6873 26.9833 13.5662V0H25.5198V13.7137L24.1446 12.3732L24.0563 8.55263V0H22.5928V11.5018L21.2175 10.1689L21.1293 7.07803V0H19.6658ZM20.1048 11.6493C19.5399 14.7149 22.6275 17.1777 25.2271 18.2849C25.9405 15.266 22.5993 12.7118 20.1048 11.6493ZM32.1057 11.6493C31.7731 11.89 31.4222 12.1284 31.0666 12.3701C28.9182 13.8301 26.5993 15.406 27.1297 18.2849C29.0961 17.5229 33.8775 14.2626 32.1057 11.6493ZM20.1048 16.6629C19.5316 19.7744 22.5991 22.1792 25.2271 23.2985C26.1235 20.243 22.445 17.8371 20.1048 16.6629ZM30.7002 17.6914C31.1844 17.352 31.6652 17.0151 32.1057 16.6629C33.8917 19.2971 29.1128 22.541 27.1297 23.2985C26.6231 20.5491 28.6912 19.0995 30.7002 17.6914ZM24.8964 28.2528C22.4516 26.7263 19.5125 24.8912 20.1048 21.6765C22.5979 23.1074 26.0097 25.1478 25.2271 28.4596C25.1182 28.3912 25.0078 28.3223 24.8964 28.2528ZM30.4159 22.9839C30.9796 22.5742 31.5592 22.1529 32.1057 21.6765C33.9779 24.4379 28.9895 27.392 27.1297 28.4596C26.7749 25.6304 28.5048 24.373 30.4159 22.9839Z" fill="#0F766E"/>
</svg>
