<svg width="135" height="37" viewBox="0 0 135 37" fill="none" xmlns="http://www.w3.org/2000/svg">
<path fill-rule="evenodd" clip-rule="evenodd" d="M47.4165 29.4796C50.0064 29.4796 51.9906 28.7881 53.5474 27.6555C54.091 27.26 54.9517 27.6154 54.9517 28.2877C54.9517 28.6961 55.2827 29.0272 55.6912 29.0272H58.3705C60.2587 29.0272 61.7894 27.4965 61.7894 25.6083V14.9571C61.7894 11.6994 60.952 9.03026 59.0912 7.22074C57.3239 5.50146 54.5334 4.50607 50.6726 4.50607C47.691 4.50607 45.4711 4.88778 43.4602 5.52451C42.0427 5.97334 41.3633 7.53763 41.8379 8.9467C42.3472 10.4588 43.9888 11.2186 45.5415 10.8508C46.7963 10.5535 48.0909 10.3874 49.6492 10.3874C53.184 10.3874 54.9985 11.9709 54.9985 14.8214C54.9985 15.0218 54.8022 15.1633 54.6111 15.103C52.9627 14.5833 51.2334 14.2332 48.905 14.2332C42.9979 14.2332 38.858 16.6764 38.858 21.9696V22.0602C38.858 26.8555 42.7187 29.4796 47.4165 29.4796ZM49.556 24.7294C47.2769 24.7294 45.6953 23.6434 45.6953 21.7887V21.6981C45.6953 19.5264 47.5561 18.3502 50.5794 18.3502C51.7993 18.3502 52.9493 18.5322 53.9462 18.8314C54.6583 19.0452 55.0912 19.7333 55.0912 20.4767C55.0912 22.965 52.8585 24.7294 49.556 24.7294ZM76.1034 36.3563C80.9404 36.3563 84.5224 35.3609 86.8479 33.099C88.941 31.0631 90.0108 27.896 90.0108 23.5531V8.3128C90.0108 6.36035 88.428 4.77757 86.4756 4.77757H83.8374C83.3419 4.77757 82.9403 5.17919 82.9403 5.6746C82.9403 6.48801 81.9182 6.90352 81.2755 6.40501C79.6751 5.16377 77.7032 4.32519 74.8937 4.32519C69.1725 4.32519 63.8237 8.39701 63.8237 15.6355V15.7261C63.8237 22.9195 69.0798 27.0368 74.8937 27.0368C78.192 27.0368 80.3495 25.8924 82.2401 23.9684C82.5231 23.6804 83.0335 23.8728 83.0335 24.2766C83.0335 28.6199 80.7544 30.8822 75.9171 30.8822C73.7693 30.8822 71.9364 30.5377 70.2135 29.9111C68.6908 29.3573 66.9163 29.906 66.2284 31.3729C65.5871 32.7404 66.1389 34.3873 67.5587 34.9027C70.1576 35.8463 73.0648 36.3563 76.1034 36.3563ZM76.9404 21.3359C73.4984 21.3359 70.8938 19.074 70.8938 15.7261V15.6355C70.8938 12.3331 73.4984 10.0257 76.9404 10.0257C80.3825 10.0257 83.0335 12.3331 83.0335 15.6355V15.7261C83.0335 19.0289 80.3825 21.3359 76.9404 21.3359ZM93.394 25.4922C93.394 27.4445 94.9767 29.0272 96.9291 29.0272C98.8814 29.0272 100.464 27.4445 100.464 25.4922V20.0694C100.464 14.2783 103.348 11.5185 108.046 11.5185C108.251 11.5185 108.418 11.352 108.418 11.1466V6.02515C108.418 5.07465 107.663 4.26864 106.72 4.39016C105.041 4.60656 103.722 5.27973 102.67 6.29708C102.017 6.9277 100.464 6.52017 100.464 5.61275C100.464 5.1515 100.09 4.77757 99.6289 4.77757H96.9291C94.9767 4.77757 93.394 6.36026 93.394 8.3126V25.4922ZM121.43 29.5702C129.197 29.5702 134.965 23.9149 134.965 16.9479V16.8573C134.965 9.8899 129.244 4.32519 121.523 4.32519C113.755 4.32519 107.987 9.98054 107.987 16.9479V17.0381C107.987 24.0055 113.708 29.5702 121.43 29.5702ZM121.523 23.6434C117.616 23.6434 114.964 20.5218 114.964 16.9479V16.8573C114.964 13.2829 117.383 10.252 121.43 10.252C125.337 10.252 127.988 13.3736 127.988 16.9479V17.0381C127.988 20.6121 125.569 23.6434 121.523 23.6434Z" fill="#2F9A29"/>
<mask id="mask0_2047_12641" style="mask-type:alpha" maskUnits="userSpaceOnUse" x="0" y="0" width="35" height="34">
<path d="M0 16C0 7.16343 7.16344 0 16 0H18.9102C27.7467 0 34.9101 7.16345 34.9101 16V17.9864C34.9101 26.8229 27.7467 33.9864 18.9102 33.9864H16C7.16344 33.9864 0 26.8229 0 17.9864V16Z" fill="#2F9A29"/>
</mask>
<g mask="url(#mask0_2047_12641)">
<path fill-rule="evenodd" clip-rule="evenodd" d="M32.8249 16.3224C32.8211 16.1323 32.9765 15.9752 33.1719 15.9711C33.3674 15.9675 33.5289 16.119 33.5327 16.3087C33.5438 16.7784 33.5443 17.1849 33.5302 17.5861C33.5157 17.9942 33.4863 18.3934 33.4378 18.8421C33.0659 22.2948 31.5911 25.2435 29.4478 27.5211C27.7204 29.3568 25.5597 30.7558 23.1941 31.63C20.828 32.5041 18.2549 32.855 15.702 32.5948C12.5287 32.2709 9.38779 31.0036 6.71565 28.6257C5.05903 27.1505 3.71343 25.3434 2.79359 23.3164C1.90813 21.3642 1.41445 19.2079 1.41445 16.9472L1.41735 16.7506C1.47368 12.6015 3.31999 8.74032 6.22115 5.91809C9.12356 3.09465 13.0837 1.30729 17.3665 1.30729L17.5653 1.3097C21.4041 1.3657 24.5227 2.56895 26.7654 4.33577C28.3893 5.61476 29.5547 7.19023 30.2029 8.84103C30.856 10.5047 30.9856 12.2478 30.5325 13.8486C30.0968 15.3882 29.1256 16.7905 27.5684 17.8584C25.5303 19.2562 22.782 19.8681 19.9628 19.9128C16.7179 19.9644 13.3682 19.2643 10.9044 18.148C10.7268 18.0679 10.6497 17.862 10.7326 17.6892C10.815 17.516 11.0266 17.4411 11.2043 17.5216C13.5815 18.5988 16.8161 19.274 19.9517 19.2244C22.6391 19.1817 25.2466 18.6069 27.16 17.2944C28.576 16.3232 29.457 15.0555 29.8496 13.6678C30.2617 12.2115 30.1403 10.6167 29.5394 9.08716C28.9339 7.54432 27.8422 6.07036 26.3185 4.87033C24.1901 3.19375 21.2215 2.05172 17.557 1.99814H17.3665C13.2809 1.99814 9.49837 3.70736 6.72352 6.40673C3.94619 9.10851 2.17899 12.7984 2.12515 16.7591V16.9472C2.12515 19.1104 2.59646 21.1729 3.44341 23.038C4.32473 24.9805 5.6111 26.7094 7.19317 28.1177C9.7452 30.3893 12.7445 31.5994 15.7745 31.9087C18.2159 32.1577 20.6785 31.8221 22.9444 30.9846C25.2094 30.148 27.276 28.8106 28.926 27.0566C30.9703 24.8838 32.3772 22.0692 32.7329 18.7724C32.7801 18.3329 32.8083 17.949 32.8224 17.5643C32.8361 17.1736 32.8356 16.778 32.8249 16.3224ZM23.4322 22.9333C23.5735 22.8011 23.7979 22.8056 23.9334 22.9425C24.0688 23.0799 24.0646 23.2982 23.9238 23.43C22.0556 25.1875 19.7657 25.9807 17.5185 25.9807C16.2545 25.9807 15.0017 25.7281 13.8433 25.2536C12.6865 24.7802 11.6259 24.085 10.745 23.1987C9.20349 21.6486 8.21076 19.5173 8.21076 16.9698C8.21076 14.5 9.27058 12.3062 10.9512 10.7134C12.6708 9.08394 15.0427 8.08532 17.5943 8.068C19.7139 8.0539 21.26 8.54012 22.1198 9.18787C22.4929 9.46864 22.7472 9.78446 22.8748 10.1112C23.0143 10.4673 23.0065 10.831 22.8433 11.1754C22.6383 11.6093 22.184 11.9972 21.4646 12.2744C20.466 12.6591 19.2919 12.7473 18.1116 12.6413C16.7349 12.5181 15.345 12.1293 14.2218 11.6423C14.0433 11.565 13.963 11.3615 14.0425 11.1875C14.1224 11.0139 14.332 10.9358 14.5105 11.0135C15.5707 11.4727 16.8803 11.8393 18.1753 11.9557C19.2513 12.052 20.3132 11.9751 21.2037 11.6318C21.7421 11.4244 22.0688 11.1629 22.1993 10.8866C22.2792 10.7178 22.2817 10.537 22.2113 10.3565C22.1289 10.1462 21.9529 9.93351 21.687 9.7333C20.9357 9.16773 19.5454 8.74355 17.5968 8.75684C15.2353 8.77255 13.0386 9.69785 11.4453 11.2077C9.89761 12.6744 8.92186 14.695 8.92186 16.9698C8.92186 19.3255 9.8359 21.2929 11.2556 22.7206C12.0694 23.5395 13.0493 24.1816 14.1183 24.6191C15.186 25.0566 16.3452 25.2894 17.5185 25.2894C19.5926 25.2894 21.7064 24.5567 23.4322 22.9333ZM34.0553 14.7703C34.033 14.581 34.173 14.4098 34.3676 14.3884C34.5623 14.3667 34.7383 14.5028 34.7602 14.6922C34.8083 15.0885 34.841 15.497 34.8638 15.8644C34.9068 16.5673 34.9101 17.1281 34.9101 17.1494C34.8667 21.8335 33.044 25.7627 30.2252 28.6454C28.5446 30.3639 26.5086 31.7101 24.2833 32.6209C22.0597 33.5317 19.6473 34.0071 17.2116 33.9857C13.0829 33.9495 8.88997 32.4864 5.44129 29.2956C3.72627 27.7088 2.33927 25.7966 1.39458 23.6576C0.490058 21.6092 -0.00858539 19.3513 0.000111886 16.9706C0.000526042 16.8964 0.00135435 16.8251 0.00259682 16.7571C0.0779732 12.1833 2.05308 7.98663 5.18369 4.938C8.31595 1.88736 12.6054 -0.0160117 17.3073 0.000101505C17.3806 0.000504336 17.4518 0.00131 17.5197 0.00211566C21.6356 0.0665686 25.0122 1.35724 27.4905 3.2723C29.4006 4.74827 30.7785 6.59646 31.5526 8.54334C32.3316 10.5019 32.4998 12.5612 31.9858 14.4448C31.5095 16.1915 30.4497 17.7839 28.7504 19.0045C26.6092 20.5421 23.74 21.3155 20.7891 21.4835C17.4994 21.6708 14.0951 21.1048 11.4867 20.0067C11.307 19.9314 11.2246 19.7292 11.302 19.5543C11.3795 19.3799 11.5874 19.2997 11.7667 19.3751C14.2781 20.4321 17.5653 20.9763 20.7502 20.795C23.5735 20.6343 26.3073 19.9028 28.3284 18.451C29.891 17.3291 30.8638 15.8688 31.3004 14.2696C31.7754 12.5269 31.6172 10.6155 30.892 8.79189C30.1623 6.95659 28.8589 5.21072 27.0495 3.81209C24.6838 1.98445 21.4538 0.75259 17.5086 0.690554C17.4386 0.689748 17.3715 0.688942 17.3073 0.68854C12.8017 0.673232 8.68993 2.49846 5.68606 5.42382C2.6797 8.35159 0.782867 12.3799 0.710389 16.7675C0.709147 16.838 0.708319 16.9061 0.708319 16.9706C0.700036 19.2518 1.17839 21.4178 2.04729 23.3848C2.95387 25.4389 4.28497 27.2742 5.93 28.7961C9.23993 31.8584 13.2601 33.2623 17.2174 33.2973C19.5557 33.3178 21.8729 32.861 24.0087 31.9865C26.1437 31.1123 28.0977 29.8201 29.7117 28.1701C32.4136 25.407 34.1605 21.6386 34.2019 17.1442C34.2024 17.1244 34.1986 16.6024 34.1556 15.9047C34.1344 15.5546 34.1021 15.1615 34.0553 14.7703ZM25.6393 22.4076C25.7503 22.2513 25.971 22.2118 26.1321 22.3198C26.2928 22.4281 26.3334 22.6424 26.222 22.7991C24.5248 25.1782 22.0543 26.6691 19.3967 27.1561C16.7449 27.642 13.9079 27.1288 11.4664 25.5021C10.0616 24.5659 8.87548 23.2962 8.05627 21.7844C7.28811 20.3662 6.84249 18.7358 6.84238 16.9684C6.84238 16.968 6.84266 16.9677 6.843 16.9677C6.84335 16.9677 6.84363 16.9675 6.84363 16.9671V16.9436C6.85108 14.187 8.09479 11.6137 10.0442 9.73169C11.9941 7.85007 14.6525 6.65527 17.4895 6.65527H17.5144H17.5156C20.1587 6.66977 22.1488 7.39285 23.3366 8.37093C23.904 8.83781 24.2945 9.36673 24.4937 9.91095C24.7008 10.4765 24.702 11.0554 24.4817 11.5996C24.2092 12.2732 23.6 12.8806 22.6259 13.3217C21.236 13.9517 19.6584 14.1749 18.0776 14.1004C16.3104 14.0174 14.5353 13.5602 13.0146 12.8826C12.9856 12.8697 12.9499 12.8536 12.9081 12.8347C12.8779 12.821 12.8427 12.8045 12.8025 12.786C12.6261 12.7042 12.5515 12.4983 12.636 12.3271C12.7205 12.1555 12.9317 12.083 13.1081 12.1648C13.1359 12.1781 13.1699 12.1934 13.208 12.2107C13.2353 12.2232 13.2688 12.2385 13.309 12.2562C14.7523 12.8992 16.4359 13.333 18.1107 13.412C19.5822 13.4816 21.045 13.2762 22.326 12.6957C23.1245 12.334 23.614 11.8603 23.8211 11.3483C23.9768 10.9635 23.9744 10.549 23.8249 10.1406C23.6675 9.71034 23.3482 9.28415 22.8785 8.89743C21.8034 8.01241 19.9732 7.35741 17.5127 7.34411H17.4895C14.8472 7.34411 12.3672 8.46076 10.5441 10.2207C8.72141 11.9803 7.55846 14.3792 7.55183 16.9436L7.55143 16.9671C7.55142 16.9675 7.5517 16.9677 7.55205 16.9677C7.55239 16.9677 7.55266 16.968 7.55266 16.9684C7.55276 18.6205 7.96815 20.1418 8.68372 21.4629C9.44784 22.8741 10.5553 24.0588 11.8661 24.9325C14.1464 26.452 16.7937 26.9314 19.2662 26.4782C21.7462 26.0238 24.0526 24.6312 25.6393 22.4076ZM27.9432 21.023C28.0099 20.8442 28.2132 20.7515 28.3971 20.8164C28.581 20.8812 28.6763 21.079 28.6096 21.2579C28.2228 22.2976 27.6972 23.2374 27.0627 24.0705C25.5084 26.1124 23.3022 27.5126 20.8752 28.1874C18.4512 28.8605 15.8039 28.8102 13.3637 27.9513C12.3138 27.5815 11.302 27.0619 10.3627 26.3855C8.86264 25.3047 7.61313 23.89 6.75293 22.2356C5.93923 20.67 5.47373 18.8922 5.4736 16.9827C5.4736 16.9822 5.47397 16.9818 5.47443 16.9818C5.47488 16.9818 5.47525 16.9815 5.47525 16.981V16.9299V16.9283C5.49141 13.8655 6.90492 10.9672 9.10409 8.8362C11.3035 6.705 14.2921 5.33704 17.4593 5.33681C17.4597 5.33681 17.4601 5.33717 17.4601 5.33761C17.4601 5.33806 17.4605 5.33842 17.4609 5.33842H17.5144H17.5168C20.4718 5.365 22.7617 6.23754 24.2361 7.45449C25.0487 8.1248 25.6181 8.90307 25.9205 9.70712C26.229 10.5277 26.2593 11.3748 25.9867 12.1648C25.6786 13.0579 24.9878 13.8684 23.8791 14.4714C22.2635 15.3512 20.3737 15.6722 18.4665 15.6009C16.2773 15.5192 14.0615 14.9198 12.2152 14.0581C12.1299 14.0178 12.0703 13.99 12.0413 13.9763C12.0135 13.963 11.9551 13.934 11.869 13.8909C11.695 13.8047 11.6259 13.5973 11.7149 13.4281C11.804 13.2589 12.0173 13.192 12.1912 13.2782C12.2161 13.2907 12.2699 13.3169 12.3552 13.358C12.438 13.3979 12.4923 13.4236 12.5205 13.4369C14.2864 14.2615 16.4036 14.8348 18.4918 14.9125C20.2768 14.9794 22.0382 14.6829 23.5325 13.8696C24.478 13.3548 25.0615 12.68 25.315 11.9465C25.5349 11.3084 25.508 10.6171 25.2541 9.94197C24.994 9.2495 24.495 8.57275 23.7781 7.98099C22.4171 6.85749 20.2842 6.05183 17.5115 6.02686H17.4607C17.4604 6.02686 17.4601 6.02713 17.4601 6.02746C17.4601 6.02779 17.4598 6.02806 17.4595 6.02806C14.4865 6.02824 11.6759 7.31686 9.60356 9.32483C7.53071 11.3338 6.19837 14.0585 6.18305 16.9311V16.9812C6.18305 16.9816 6.18333 16.9818 6.18367 16.9818C6.18401 16.9818 6.18429 16.9821 6.18429 16.9825C6.18439 18.7821 6.62131 20.4548 7.38617 21.925C8.19543 23.4819 9.37163 24.8145 10.7847 25.832C11.6669 26.4673 12.6178 26.9555 13.6051 27.3032C15.9012 28.1117 18.3953 28.1584 20.681 27.5231C22.9638 26.8887 25.0367 25.5742 26.4937 23.66C27.0876 22.8797 27.58 21.9987 27.9432 21.023ZM29.7083 20.0293C29.7514 19.8436 29.9407 19.7267 30.1316 19.7686C30.3225 19.8101 30.4426 19.9946 30.3996 20.1803C29.9535 22.1079 29.0859 23.7905 27.925 25.1919C26.3404 27.105 24.2108 28.4943 21.8617 29.2698C19.5143 30.0448 16.9457 30.2072 14.4811 29.6682C12.607 29.2577 10.7943 28.442 9.18485 27.1815C7.62348 25.9573 6.32593 24.3968 5.43301 22.6042C4.5873 20.9054 4.10481 19.0004 4.10481 16.9778C4.10481 16.9013 4.10564 17.0241 4.10688 16.8868C4.13422 13.4853 5.70097 10.263 8.14076 7.89317C10.5808 5.52311 13.897 4.00167 17.4224 4.00142C17.4229 4.00142 17.4235 4.00164 17.4239 4.00203C17.4243 4.00241 17.4248 4.00263 17.4253 4.00263L17.5156 4.00303H17.5168C20.7721 4.04009 23.3469 5.03549 25.0893 6.45506C26.1636 7.33001 26.9244 8.36891 27.3373 9.4481C27.7568 10.5422 27.8181 11.6774 27.4881 12.7284C27.1389 13.839 26.3566 14.8484 25.1013 15.6082C23.3407 16.6745 21.1465 17.0946 18.913 17.0539C16.3605 17.008 13.7488 16.3595 11.6781 15.389C11.601 15.3528 11.5219 15.3149 11.442 15.2755C11.3612 15.236 11.2846 15.1977 11.2121 15.1606C11.0386 15.0716 10.9723 14.863 11.0639 14.6946C11.1546 14.5262 11.3691 14.4613 11.5422 14.5504C11.6176 14.5886 11.6905 14.6253 11.7609 14.6599C11.8325 14.695 11.9079 14.7312 11.9862 14.7679C13.9733 15.6992 16.4773 16.3212 18.9241 16.3655C21.0305 16.4038 23.0897 16.0134 24.7265 15.0225C25.8281 14.3554 26.5107 13.482 26.8105 12.5289C27.095 11.6246 27.0391 10.6413 26.6738 9.68819C26.3032 8.71978 25.6128 7.78199 24.6341 6.98438C23.0052 5.65746 20.5853 4.72652 17.5115 4.69147L17.424 4.69107C17.4236 4.69107 17.4232 4.69143 17.4232 4.69188C17.4232 4.69232 17.4229 4.69268 17.4224 4.69268C14.0917 4.69291 10.9535 6.13499 8.64023 8.38181C6.32676 10.6296 4.84035 13.679 4.81468 16.8924C4.81385 16.9706 4.8155 16.8421 4.8155 16.9778C4.8155 18.8945 5.2719 20.698 6.07164 22.3044C6.91776 24.0036 8.14822 25.4836 9.62924 26.6441C11.1508 27.8365 12.8655 28.6083 14.6364 28.9955C16.971 29.5067 19.4066 29.352 21.634 28.6164C23.8596 27.8816 25.8753 26.568 27.3725 24.7597C28.4684 23.4372 29.2872 21.8488 29.7083 20.0293ZM31.3376 18.8385C31.3579 18.6492 31.5319 18.5114 31.7265 18.5303C31.9212 18.5501 32.0628 18.7193 32.0429 18.9086C31.7203 21.8831 30.4944 24.4209 28.7049 26.4121C27.1277 28.1677 25.112 29.4974 22.8918 30.3268C20.6723 31.1554 18.2487 31.4842 15.8536 31.238C13.0232 30.9476 10.2314 29.8563 7.86121 27.8414C6.27085 26.4899 4.96543 24.8149 4.07002 22.9163C3.21686 21.1076 2.73644 19.0983 2.73644 16.9758C2.73644 16.9303 2.73727 16.9702 2.7381 16.8396C2.7791 13.0808 4.49205 9.53712 7.16584 6.93605C9.8417 4.33295 13.4825 2.66805 17.3777 2.66805C17.4092 2.66805 17.3827 2.66845 17.5168 2.67007H17.5185C21.0587 2.71679 23.9035 3.81612 25.9002 5.41052C27.2507 6.4889 28.2145 7.79528 28.7459 9.15846C29.283 10.5365 29.3795 11.9734 28.9894 13.2971C28.5997 14.6188 27.727 15.8229 26.3268 16.7381C24.4577 17.9595 21.9819 18.4896 19.4439 18.5041C16.5904 18.5199 13.6486 17.8834 11.4072 16.8449C11.3331 16.8102 11.2411 16.7663 11.133 16.7132C11.0543 16.6749 10.9653 16.6294 10.8655 16.5774C10.6928 16.4884 10.6278 16.2797 10.7193 16.1117C10.8117 15.9442 11.0258 15.8805 11.1985 15.9699C11.2697 16.007 11.3542 16.0497 11.4519 16.0976C11.5194 16.1307 11.606 16.1718 11.7124 16.2213C13.8665 17.2191 16.6952 17.8306 19.4414 17.8157C21.8493 17.802 24.1868 17.3065 25.9325 16.1657C27.1837 15.348 27.961 14.2784 28.3064 13.1082C28.6543 11.9283 28.5657 10.6413 28.0824 9.40177C27.5937 8.14776 26.7024 6.94209 25.4504 5.94226C23.5681 4.4393 20.8748 3.40281 17.5098 3.3585C17.4692 3.3581 17.499 3.35931 17.3777 3.35931C13.6793 3.35931 10.2173 4.94485 7.66862 7.42468C5.11825 9.90531 3.48482 13.2766 3.4463 16.8449C3.44548 16.8868 3.44672 16.8413 3.44672 16.9758C3.44672 18.9996 3.90353 20.9119 4.71404 22.6303C5.56678 24.4378 6.81091 26.0343 8.32755 27.3229C10.581 29.2384 13.2349 30.2761 15.9261 30.5524C18.2118 30.7869 20.5236 30.4739 22.6391 29.6839C24.7526 28.8948 26.6713 27.6291 28.1722 25.9589C29.8686 24.0705 31.0312 21.6623 31.3376 18.8385Z" fill="#2F9A29"/>
</g>
</svg>
