<svg width="49" height="50" viewBox="0 0 49 50" fill="none" xmlns="http://www.w3.org/2000/svg">
<path d="M24.5 0.5C10.9703 0.5 0 11.4703 0 25C0 38.5297 10.9703 49.5 24.5 49.5C38.0297 49.5 49 38.5297 49 25C49 11.4703 38.0297 0.5 24.5 0.5ZM33.5453 34.3078L29.9359 34.2914L24.5 27.8109L19.0695 34.2859L15.4547 34.3023C15.2141 34.3023 15.0172 34.1109 15.0172 33.8648C15.0172 33.7609 15.0555 33.6625 15.1211 33.5805L22.2359 25.1039L15.1211 16.6328C15.055 16.5527 15.0183 16.4523 15.0172 16.3484C15.0172 16.1078 15.2141 15.9109 15.4547 15.9109L19.0695 15.9273L24.5 22.4078L29.9305 15.9328L33.5398 15.9164C33.7805 15.9164 33.9773 16.1078 33.9773 16.3539C33.9773 16.4578 33.9391 16.5562 33.8734 16.6383L26.7695 25.1094L33.8789 33.5859C33.9445 33.668 33.9828 33.7664 33.9828 33.8703C33.9828 34.1109 33.7859 34.3078 33.5453 34.3078Z" fill="#F5222D"/>
</svg>
