<svg width="50" height="50" viewBox="0 0 50 50" fill="none" xmlns="http://www.w3.org/2000/svg">
<path d="M34.4836 16.4013C34.4836 16.1607 34.2868 15.9638 34.0462 15.9638L30.4368 15.9802L25.0009 22.4607L19.5704 15.9857L15.9556 15.9693C15.715 15.9693 15.5181 16.1607 15.5181 16.4068C15.5181 16.5107 15.5564 16.6091 15.622 16.6912L22.7368 25.1677L15.622 33.6388C15.5559 33.719 15.5192 33.8193 15.5181 33.9232C15.5181 34.1638 15.715 34.3607 15.9556 34.3607L19.5704 34.3443L25.0009 27.8638L30.4313 34.3388L34.0407 34.3552C34.2813 34.3552 34.4782 34.1638 34.4782 33.9177C34.4782 33.8138 34.4399 33.7154 34.3743 33.6334L27.2704 25.1623L34.3852 16.6857C34.4508 16.6091 34.4836 16.5052 34.4836 16.4013Z" fill="#F5222D"/>
<path d="M25 0.554688C11.4703 0.554688 0.5 11.525 0.5 25.0547C0.5 38.5844 11.4703 49.5547 25 49.5547C38.5297 49.5547 49.5 38.5844 49.5 25.0547C49.5 11.525 38.5297 0.554688 25 0.554688ZM25 45.3984C13.7672 45.3984 4.65625 36.2875 4.65625 25.0547C4.65625 13.8219 13.7672 4.71094 25 4.71094C36.2328 4.71094 45.3438 13.8219 45.3438 25.0547C45.3438 36.2875 36.2328 45.3984 25 45.3984Z" fill="#F5222D"/>
</svg>
