<svg width="52" height="63" viewBox="0 0 52 63" fill="none" xmlns="http://www.w3.org/2000/svg">
<path d="M15.9816 2.76187C16.5006 5.64353 18.0742 6.3871 14.9669 8.2856C13.2312 4.53521 11.4535 5.93418 9.13605 8.2856C8.4028 9.0296 6.75997 10.3817 6.89369 11.5496C7.02441 12.6917 8.52003 13.7077 9.386 14.3115V14.5626L7.55702 16.4592L4.05881 15.0647C3.34936 16.7514 0.139512 21.6938 1.28541 23.4734C1.82676 24.3141 3.65009 24.6419 4.56616 24.8568L4.05881 27.6187L0.406744 27.8768L0 30.1295V36.1554H4.05881L4.56616 39.4194L1.0147 40.4237L4.05881 48.9604L7.86395 47.2028L9.386 49.4626V49.7136C8.52728 50.3125 6.97583 51.3512 6.82829 52.4755C6.57053 54.4397 10.9057 57.4981 12.1764 58.7525H12.4301C13.2369 57.9538 14.6541 55.8683 15.9728 56.5382C18.3134 57.7271 14.9361 59.9298 16.3268 61.3544C17.7415 62.8034 21.8887 63.4818 23.7465 62.6183C24.4979 62.2691 24.5889 61.2171 25.4216 60.9853C26.2207 60.7629 27.3358 61.1985 28.158 61.2633V62.7697H34.2462V56.2417C16.9574 56.9746 3.91371 39.2785 10.5156 23.0993C12.1136 19.1831 14.5807 15.9059 17.7573 13.0997C19.0031 11.9991 22.2524 10.8717 22.9314 9.44298C24.0088 7.17604 23.0845 2.51033 23.0845 0C20.5625 0.128114 18.1675 1.6235 15.9816 2.76187Z" fill="#0F766E"/>
<path fill-rule="evenodd" clip-rule="evenodd" d="M27.397 0C27.397 1.64198 27.4624 3.32988 27.5285 5.03234C27.6659 8.57494 27.8058 12.1806 27.3632 15.5669C27.2384 16.5211 26.8272 17.3714 26.4112 18.2313C25.942 19.2014 25.4668 20.1839 25.3904 21.3417C25.3314 22.2369 25.5961 23.0535 25.857 23.8585C26.087 24.568 26.314 25.2684 26.314 26.0058C26.314 26.687 26.0858 27.3729 25.8546 28.0679C25.6294 28.7451 25.4012 29.4309 25.3785 30.1295C25.3506 30.9865 25.5968 31.7663 25.8413 32.5405C26.0486 33.1973 26.2547 33.85 26.2912 34.5424C26.3385 35.4383 26.1055 36.2632 25.871 37.0936C25.5745 38.1434 25.2755 39.2019 25.5373 40.4237C26.3374 44.1583 29.1044 45.9061 31.9159 47.682C33.8413 48.8981 35.7875 50.1274 37.1373 52.017C37.6393 52.7197 37.5987 53.7056 37.5621 54.593C37.5529 54.816 37.544 55.0328 37.544 55.2374V62.7697H40.0807V54.9863C40.0807 54.7855 40.0709 54.5699 40.0606 54.3468C40.0208 53.4793 39.9758 52.499 40.4874 51.8388C41.7771 50.1739 43.6272 49.0215 45.4707 47.8731C48.2604 46.1353 51.0352 44.4067 51.831 40.9259C52.1297 39.6194 51.8407 38.4311 51.5572 37.2654C51.3253 36.3118 51.0971 35.3733 51.1973 34.3978C51.2674 33.7152 51.4268 33.0872 51.5853 32.4629C51.8143 31.5608 52.0413 30.6666 51.9936 29.6273C51.967 29.0479 51.7853 28.4732 51.6045 27.9014C51.3883 27.2181 51.1736 26.5389 51.2267 25.8611C51.2849 25.1188 51.4455 24.4315 51.6044 23.7512C51.8591 22.6608 52.1095 21.5886 51.9274 20.3374C51.7934 19.4175 51.3712 18.6038 50.9536 17.7991C50.5361 16.9947 50.1234 16.1993 50.0078 15.3158C49.5724 11.9835 49.7099 8.43564 49.8449 4.94975C49.9098 3.2753 49.9741 1.61507 49.9741 0H47.4373V12.805C47.4373 13.139 47.4429 13.4621 47.4483 13.7749C47.4886 16.1072 47.519 17.868 45.1543 19.3331V0H42.3638V16.0691C42.3638 16.4819 42.3742 16.883 42.3843 17.2723C42.446 19.6575 42.4963 21.6027 40.0807 23.0993V0H37.544V23.3503L35.1602 21.068L35.0072 14.5626V0H32.4705V19.5842L30.0867 17.3146L29.9337 12.0518V0H27.397ZM28.158 19.8352C27.1788 25.055 32.5306 29.2484 37.0367 31.1338C38.2731 25.9934 32.4817 21.6444 28.158 19.8352ZM48.9594 19.8352C48.383 20.2451 47.7747 20.6511 47.1583 21.0626C43.4345 23.5486 39.4151 26.2319 40.3345 31.1338C43.7429 29.8362 52.0307 24.2849 48.9594 19.8352ZM28.158 28.3719C27.1644 33.6699 32.4814 37.7645 37.0367 39.6705C38.5904 34.4679 32.2143 30.3713 28.158 28.3719ZM46.5234 30.1232C47.3627 29.5453 48.196 28.9716 48.9594 28.3719C52.0553 32.8572 43.7718 38.3807 40.3345 39.6705C39.4563 34.989 43.0411 32.5208 46.5234 30.1232ZM36.4634 48.1061C32.2257 45.5069 27.1313 42.3823 28.158 36.9086C32.4794 39.3451 38.3931 42.8193 37.0367 48.4582C36.8478 48.3418 36.6565 48.2245 36.4634 48.1061ZM46.0304 39.1348C47.0077 38.4371 48.0123 37.7198 48.9594 36.9086C52.2047 41.6106 43.5582 46.6404 40.3345 48.4582C39.7194 43.6409 42.7179 41.4999 46.0304 39.1348Z" fill="#0F766E"/>
</svg>
