<svg width="20" height="18" viewBox="0 0 20 18" fill="none" xmlns="http://www.w3.org/2000/svg">
<path d="M19.2187 13.2614H4.79167V1.14404C4.79167 0.712585 4.44187 0.362793 4.01042 0.362793C3.57896 0.362793 3.22917 0.712585 3.22917 1.14404V13.2614H0.78125C0.349792 13.2614 0 13.6112 0 14.0427C0 14.4741 0.349792 14.8239 0.78125 14.8239H3.22917V16.8559C3.22917 17.2874 3.57896 17.6372 4.01042 17.6372C4.44187 17.6372 4.79167 17.2874 4.79167 16.8559V14.8239H19.2187C19.6502 14.8239 20 14.4741 20 14.0427C20 13.6112 19.6502 13.2614 19.2187 13.2614Z" fill="black"/>
<path d="M6.71877 11.9439C7.29315 11.9439 7.76044 11.4766 7.76044 10.9023C7.76044 10.6645 7.6795 10.4458 7.54492 10.2703L9.4294 5.72908L11.3547 9.69845C11.263 9.85351 11.2095 10.0336 11.2095 10.2263C11.2095 10.8007 11.6768 11.268 12.2512 11.268C12.8255 11.268 13.2928 10.8007 13.2928 10.2263C13.2928 10.081 13.2627 9.94267 13.2088 9.81689L13.9337 8.88627C13.99 8.89575 14.0474 8.90184 14.1063 8.90184C14.1602 8.90184 14.2128 8.89642 14.2646 8.88851L14.9392 9.8047C14.8817 9.93377 14.8492 10.0762 14.8492 10.2264C14.8492 10.8007 15.3165 11.268 15.8909 11.268C16.4652 11.268 16.9325 10.8007 16.9325 10.2264C16.9325 10.0094 16.8658 9.80793 16.7518 9.64101L18.1632 6.8108C18.702 6.77147 19.1286 6.32163 19.1286 5.77299C19.1286 5.19861 18.6613 4.73132 18.087 4.73132C17.5126 4.73132 17.0453 5.19861 17.0453 5.77299C17.0453 5.98944 17.1117 6.19069 17.2252 6.35741L15.8134 9.18861C15.8025 9.18944 15.7914 9.18955 15.7806 9.19064L15.077 8.23507C15.1222 8.11856 15.1479 7.99246 15.1479 7.86017C15.1479 7.2858 14.6806 6.81851 14.1063 6.81851C13.5319 6.81851 13.0646 7.2858 13.0646 7.86017C13.0646 7.98752 13.0887 8.10903 13.1307 8.22194L12.3745 9.19267C12.338 9.18835 12.301 9.18575 12.2635 9.18528L10.2668 5.06877C10.3912 4.8972 10.4654 4.68705 10.4654 4.45939C10.4654 3.88502 9.9981 3.41772 9.42372 3.41772C8.84935 3.41772 8.38205 3.88502 8.38205 4.45939C8.38205 4.68507 8.45492 4.89361 8.57737 5.06434L6.58294 9.87049C6.07263 9.93736 5.677 10.374 5.677 10.9023C5.67711 11.4767 6.1444 11.9439 6.71877 11.9439Z" fill="black"/>
</svg>
