<svg width="48" height="48" viewBox="0 0 48 48" fill="none" xmlns="http://www.w3.org/2000/svg">
<mask id="path-1-inside-1_2794_27720" fill="white">
<path fill-rule="evenodd" clip-rule="evenodd" d="M36.4753 4.99463C36.3507 4.99463 36.2243 4.96011 36.1113 4.888C32.4943 2.5847 28.3061 1.36726 24.0002 1.36726C23.5084 1.36726 23.0092 1.38333 22.5174 1.41443C21.9674 1.44998 21.4137 1.50603 20.8725 1.58156C20.502 1.63078 20.1557 1.37205 20.1042 0.998136C20.0525 0.624222 20.313 0.279019 20.6856 0.227068C21.2597 0.14709 21.8472 0.0879609 22.4306 0.0500227C22.9513 0.0172113 23.4795 0.00012207 24.0002 0.00012207C28.565 0.00012207 33.0054 1.29105 36.8407 3.73413C37.1585 3.93612 37.2525 4.35857 37.0509 4.67711C36.9215 4.88253 36.7008 4.99463 36.4753 4.99463ZM30.2769 5.71375C30.2061 5.71375 30.1339 5.70247 30.063 5.67889C28.8129 5.26396 27.5177 4.97959 26.2134 4.83399C23.5449 4.53698 20.8807 4.77999 18.3708 5.5473C18.0109 5.65735 17.6301 5.45399 17.5208 5.09272C17.4111 4.73146 17.6138 4.34968 17.9737 4.23963C20.6604 3.41832 23.5125 3.15548 26.364 3.47574C27.7623 3.63159 29.151 3.93612 30.4908 4.38113C30.848 4.49973 31.0418 4.88663 30.9233 5.24448C30.829 5.53192 30.5626 5.71375 30.2769 5.71375ZM40.3236 8.05703C40.1513 8.05703 39.9789 7.99209 39.8465 7.86153C39.6571 7.67491 39.4644 7.49206 39.2685 7.31262C38.991 7.05799 38.9712 6.62563 39.2246 6.34674C39.4783 6.06852 39.9091 6.04836 40.187 6.30265C40.3951 6.49336 40.5994 6.6875 40.8004 6.88539C41.0691 7.14993 41.0731 7.58263 40.8099 7.85196C40.6764 7.98867 40.4996 8.05703 40.3236 8.05703ZM37.9179 10.375C37.747 10.375 37.576 10.3111 37.4439 10.1823C37.2542 9.99803 37.0611 9.81688 36.8642 9.64052C36.5836 9.38863 36.5594 8.95661 36.8101 8.67532C37.0614 8.39403 37.4912 8.36942 37.7722 8.62098C37.983 8.81032 38.1893 9.00343 38.3923 9.20098C38.6624 9.46348 38.6688 9.89618 38.4069 10.1676C38.2734 10.3056 38.096 10.375 37.9179 10.375ZM5.0797 11.1232C4.94109 11.1232 4.80181 11.0811 4.68125 10.9936C4.37611 10.7722 4.308 10.3446 4.528 10.039C7.01642 6.58564 10.3678 3.84008 14.2198 2.09903C14.5634 1.94351 14.9666 2.09732 15.1206 2.4415C15.2752 2.78567 15.1223 3.19069 14.7793 3.34552C11.1439 4.98848 7.98087 7.58024 5.63241 10.8402C5.49892 11.0251 5.29084 11.1232 5.0797 11.1232ZM21.3047 11.6735C20.9887 11.6735 20.7057 11.452 20.6386 11.1293C20.5616 10.7599 20.7983 10.3979 21.1664 10.3207C21.4491 10.2615 21.7348 10.2113 22.0161 10.171C22.3876 10.118 22.7333 10.3764 22.7868 10.7506C22.8402 11.1242 22.5814 11.4704 22.2089 11.5241C21.9562 11.5603 21.6987 11.6058 21.4443 11.6591C21.3977 11.6687 21.3507 11.6735 21.3047 11.6735ZM1.32339 19.2905C1.27026 19.2905 1.2168 19.2847 1.16299 19.2713C0.797236 19.1828 0.57247 18.8137 0.660674 18.4463C0.727082 18.1708 0.798257 17.897 0.87386 17.625C0.975345 17.2613 1.34995 17.0491 1.71298 17.1499C2.07533 17.2514 2.28716 17.6287 2.18601 17.992C2.11484 18.2487 2.04741 18.5071 1.98509 18.7676C1.90948 19.0806 1.63091 19.2905 1.32339 19.2905ZM15.3426 19.7601C15.2268 19.7601 15.1097 19.7307 15.0021 19.6685C14.6765 19.4792 14.5655 19.0608 14.7538 18.7341C14.8999 18.4815 15.0572 18.2316 15.2224 17.9931C15.4363 17.6831 15.8616 17.6051 16.1698 17.8205C16.479 18.0355 16.5564 18.4613 16.3418 18.7717C16.1977 18.9801 16.0605 19.1982 15.9331 19.419C15.8068 19.6381 15.5779 19.7601 15.3426 19.7601ZM32.8369 20.0988C32.593 20.0988 32.3567 19.9672 32.2344 19.7355C32.1827 19.6374 32.1292 19.54 32.0733 19.4433C32.0093 19.3308 31.9422 19.2232 31.8748 19.1155C31.7886 18.9788 31.7008 18.841 31.6068 18.7081C31.5731 18.6599 31.54 18.6161 31.5063 18.5727L31.4477 18.4948C30.893 17.7514 30.2578 17.115 29.5597 16.6027L29.4528 16.522C29.418 16.4954 29.3836 16.4691 29.3479 16.4438C29.212 16.3474 29.071 16.2582 28.93 16.169C28.8282 16.1051 28.725 16.0401 28.6191 15.9793C28.4962 15.9085 28.3729 15.8419 28.2482 15.7773C28.1079 15.7048 27.9635 15.6351 27.8171 15.5688C27.7023 15.5165 27.6087 15.4738 27.514 15.4348C27.3247 15.3572 27.12 15.282 26.9065 15.212L26.8176 15.1809C26.7896 15.1706 26.7617 15.1607 26.7331 15.1522C26.1715 14.9796 25.5909 14.8603 25.0048 14.7974C24.7971 14.7755 24.5852 14.768 24.3615 14.7598C24.2913 14.757 24.2369 14.7536 24.1827 14.7499C24.1265 14.7461 24.07 14.7417 24.0124 14.7417C22.2599 14.7417 20.5616 15.227 19.0901 16.1461C18.7703 16.345 18.3504 16.2472 18.1518 15.9266C17.9533 15.606 18.051 15.1846 18.3705 14.985C20.0583 13.9313 22.0052 13.3745 24.0005 13.3745C24.1037 13.3749 24.1899 13.38 24.276 13.3861C24.3169 13.3889 24.3577 13.3916 24.399 13.3933C24.6472 13.4022 24.8924 13.4108 25.1485 13.4378C25.8218 13.5099 26.4879 13.6466 27.1305 13.8445C27.1772 13.8588 27.2252 13.8752 27.2732 13.8923L27.3342 13.9139C27.5746 13.9928 27.8099 14.0793 28.0296 14.1695C28.141 14.2157 28.2503 14.2649 28.3589 14.3144C28.5449 14.3989 28.7104 14.4785 28.8731 14.5626C29.0175 14.6378 29.1589 14.7136 29.2971 14.7936C29.4174 14.8627 29.5359 14.9368 29.6544 15.0113C29.8172 15.1139 29.9776 15.2164 30.1332 15.3265C30.1822 15.3613 30.2306 15.3979 30.2786 15.4348L30.3627 15.498C31.1709 16.0914 31.902 16.8235 32.5378 17.6752L32.5896 17.7432C32.6339 17.8013 32.6778 17.8598 32.7197 17.9192C32.8256 18.0693 32.9268 18.2272 33.0269 18.3858C33.1052 18.5102 33.1812 18.6339 33.2537 18.7604C33.3167 18.8698 33.3783 18.9819 33.4383 19.0953C33.6143 19.4286 33.4877 19.8425 33.1553 20.0195C33.0534 20.0735 32.9445 20.0988 32.8369 20.0988ZM4.17144 22.2353C4.14283 22.2353 4.11423 22.2336 4.08528 22.2302C3.71169 22.1827 3.44776 21.8409 3.49442 21.4663C4.20754 15.7944 7.28035 10.6132 11.9248 7.25178C12.2303 7.03133 12.6563 7.10003 12.8756 7.40627C13.096 7.71217 13.0269 8.1394 12.7217 8.36053C8.38273 11.5012 5.51186 16.3402 4.84608 21.6372C4.80249 21.9831 4.50927 22.2353 4.17144 22.2353ZM37.1145 22.4424C36.7839 22.4424 36.4937 22.2004 36.442 21.8621C36.4229 21.7349 36.4014 21.6085 36.3755 21.4837C36.3575 21.3986 36.3347 21.3156 36.3119 21.2322C36.2942 21.1662 36.2761 21.1002 36.2594 21.0339L36.2356 20.9358C36.176 20.6928 36.1194 20.4635 36.0507 20.2441C36.0241 20.161 35.9924 20.0793 35.9611 19.9973C35.9376 19.9358 35.9144 19.8743 35.892 19.8124L35.8695 19.7485C35.783 19.5058 35.7016 19.2761 35.6069 19.0577C35.5729 18.9778 35.5337 18.9005 35.4956 18.8229C35.4673 18.7662 35.439 18.7095 35.4121 18.652L35.3886 18.6021C35.2762 18.3656 35.17 18.1421 35.0522 17.9295C35.0096 17.8529 34.9629 17.7784 34.9163 17.7039L34.823 17.5525C34.6929 17.3351 34.5451 17.0897 34.3922 16.8676C34.3418 16.7958 34.288 16.725 34.2338 16.6546L34.1306 16.5183C33.9668 16.2971 33.805 16.0822 33.6344 15.8805C33.5728 15.8074 33.5071 15.7373 33.442 15.6669L33.3405 15.5561C33.1662 15.3644 32.9799 15.1617 32.7878 14.9751C32.7146 14.904 32.6387 14.8367 32.5627 14.7687L32.4571 14.6737C32.2688 14.5031 32.0662 14.3226 31.8591 14.1579C31.7696 14.0861 31.6786 14.0195 31.5877 13.9528L31.4876 13.879C31.3016 13.7416 31.0799 13.5803 30.8548 13.4337C30.7387 13.3585 30.6188 13.2877 30.4986 13.2166L30.4424 13.1828C30.2626 13.0758 30.0266 12.9374 29.7858 12.8126L29.7467 12.7925C29.4122 12.6205 29.2798 12.2084 29.4511 11.8724C29.6224 11.5371 30.0321 11.4028 30.3678 11.5757L30.4145 11.6C30.6832 11.7387 30.9424 11.8908 31.1371 12.0074L31.1916 12.0392C31.3275 12.1198 31.4627 12.2002 31.5955 12.2863C31.8513 12.4527 32.0934 12.6288 32.2964 12.7788L32.3921 12.8492C32.4983 12.9275 32.6046 13.0054 32.7078 13.0885C32.9428 13.2758 33.1651 13.4736 33.3702 13.6592L33.4686 13.7474C33.5585 13.8281 33.6481 13.9084 33.7349 13.9925C33.9556 14.2064 34.1579 14.4272 34.3469 14.635L34.4398 14.7362C34.5188 14.8216 34.5975 14.9068 34.6728 14.9956C34.8693 15.228 35.0453 15.4618 35.2228 15.7011L35.3151 15.8231C35.3818 15.9102 35.4482 15.9974 35.5109 16.088C35.6893 16.3467 35.8487 16.6119 35.9894 16.8464L36.0711 16.9787C36.1297 17.0726 36.1879 17.1666 36.2421 17.2637C36.3813 17.5149 36.5016 17.7689 36.6184 18.0146L36.7147 18.2132C36.7641 18.3126 36.8132 18.4121 36.8574 18.515C36.9691 18.7744 37.0624 19.0359 37.152 19.2884L37.1745 19.351C37.1932 19.4033 37.2133 19.4559 37.2334 19.5082C37.2739 19.6145 37.3141 19.7215 37.3488 19.8305C37.4319 20.0933 37.496 20.3555 37.5583 20.6091L37.5818 20.7051C37.5954 20.7609 37.6107 20.8162 37.6257 20.8716C37.6557 20.9813 37.6853 21.091 37.7085 21.2035C37.7398 21.3521 37.7657 21.5032 37.7888 21.6556C37.8454 22.0289 37.59 22.3775 37.2184 22.4346C37.1833 22.44 37.1489 22.4424 37.1145 22.4424ZM47.2399 26.7161C47.2215 26.7161 47.2024 26.7154 47.1834 26.7137C46.8087 26.6826 46.5295 26.3525 46.5605 25.9765C46.6119 25.3514 46.6378 24.7153 46.6378 24.0864C46.6381 20.6699 45.9015 17.3864 44.4487 14.3261C44.2869 13.9853 44.431 13.5772 44.7705 13.4149C45.1094 13.2532 45.5167 13.3967 45.6784 13.7378C47.2195 16.9834 48.0003 20.4652 48 24.0864C48 24.7526 47.9724 25.4255 47.9183 26.0886C47.889 26.4458 47.591 26.7161 47.2399 26.7161ZM10.8705 27.0596C10.5452 27.0596 10.2578 26.8251 10.2003 26.4919C10.064 25.7034 9.99491 24.8934 9.99491 24.0847C9.99491 23.6776 10.0126 23.2631 10.0474 22.8526C10.4383 18.2672 13.0939 14.1517 17.151 11.8437C17.4786 11.6581 17.8937 11.7733 18.0793 12.1014C18.2646 12.4298 18.1498 12.8472 17.8229 13.0334C14.1565 15.1187 11.7573 18.8328 11.4051 22.9691C11.3731 23.341 11.3571 23.7163 11.3571 24.0847C11.3571 24.8155 11.4194 25.5469 11.5424 26.2595C11.6067 26.6314 11.3581 26.9851 10.9873 27.049C10.9481 27.0562 10.9093 27.0596 10.8705 27.0596ZM4.15203 27.1594C3.81216 27.1594 3.51826 26.9041 3.47671 26.5568C3.44334 26.2762 3.41575 25.9932 3.39362 25.7096C3.36433 25.3336 3.64494 25.0048 4.01989 24.9754C4.39144 24.9453 4.72246 25.2273 4.75208 25.604C4.77252 25.8688 4.79806 26.1327 4.82939 26.3942C4.874 26.7694 4.60735 27.1099 4.23376 27.1546C4.20618 27.1577 4.17893 27.1594 4.15203 27.1594ZM43.489 29.2405C43.4386 29.2405 43.3879 29.2358 43.3368 29.2241C42.97 29.1401 42.7405 28.7737 42.8243 28.4056C43.144 26.9974 43.3065 25.5441 43.3065 24.0864C43.3065 23.273 43.2554 22.4459 43.1549 21.6273C42.7888 18.6414 41.694 15.7339 39.9888 13.219C39.7773 12.907 39.858 12.4818 40.169 12.2695C40.4792 12.0576 40.9035 12.1376 41.115 12.45C42.9414 15.1436 44.1146 18.2593 44.5073 21.4605C44.6142 22.3337 44.6687 23.2173 44.6687 24.0864C44.6687 25.6463 44.495 27.2018 44.1524 28.7094C44.0802 29.0262 43.7996 29.2405 43.489 29.2405ZM25.6651 34.6496C25.3385 34.6496 25.0501 34.4131 24.9939 34.0792C24.9319 33.707 25.1819 33.3546 25.5531 33.2917C27.4789 32.967 29.2219 32.0661 30.5929 30.6866L30.6124 30.6624C30.642 30.6279 30.6716 30.593 30.7033 30.5609C30.9202 30.3353 31.1337 30.0882 31.3391 29.8247L31.3967 29.7478C31.5628 29.5297 31.726 29.2949 31.8806 29.0495C31.9157 28.9928 31.9511 28.9333 31.9862 28.8738C32.1084 28.6704 32.2276 28.451 32.3424 28.219C32.3819 28.1386 32.4227 28.0569 32.4609 27.9729C32.5464 27.7873 32.6312 27.5795 32.7211 27.3378L32.7521 27.2537C32.779 27.1837 32.8055 27.114 32.8287 27.0425C32.9012 26.8262 32.9622 26.5968 33.0119 26.401L33.0449 26.2773C33.0626 26.211 33.0807 26.1453 33.0953 26.0783C33.1222 25.9519 33.1454 25.8223 33.1658 25.6921C33.2247 25.3196 33.5728 25.0663 33.9454 25.1241C34.3169 25.1825 34.5703 25.5332 34.5114 25.9064C34.4868 26.0619 34.4593 26.2168 34.4262 26.3695C34.4065 26.4608 34.383 26.5476 34.3595 26.6341L34.3312 26.7414C34.2754 26.9602 34.2066 27.2185 34.1211 27.4749C34.0921 27.562 34.0594 27.6495 34.0267 27.737L33.9975 27.815C33.8956 28.0887 33.7979 28.3276 33.6985 28.5436C33.6552 28.639 33.6092 28.7327 33.5629 28.8266C33.4315 29.0922 33.2942 29.3441 33.1549 29.5765C33.1158 29.6428 33.0752 29.7105 33.0334 29.7782C32.8556 30.0598 32.669 30.3288 32.4776 30.5797L32.4129 30.6658C32.1772 30.9683 31.9323 31.2513 31.6841 31.5093L31.647 31.5517C31.6228 31.5797 31.5986 31.6077 31.5731 31.6348C29.9844 33.2343 27.9863 34.2672 25.7789 34.6397C25.7407 34.6466 25.7023 34.6496 25.6651 34.6496ZM15.9308 34.9255C15.361 34.9255 14.8267 34.705 14.385 34.287C13.8816 33.8109 13.41 33.2928 12.9826 32.7479C12.7496 32.4513 12.8004 32.0213 13.0963 31.7882C13.3923 31.5548 13.82 31.605 14.0526 31.9024C14.4388 32.3945 14.8652 32.8621 15.3195 33.2924C15.5061 33.4691 15.7118 33.5583 15.9308 33.5583C16.4552 33.5583 16.9698 33.0562 16.9698 32.5439C16.9698 32.3494 16.8938 32.1594 16.7443 31.9793C16.6279 31.8385 16.5063 31.7038 16.3847 31.5797C15.1866 30.3572 14.291 28.8516 13.7931 27.2244C13.6828 26.8631 13.885 26.481 14.2447 26.3702C14.6043 26.2602 14.985 26.4625 15.0957 26.8231C15.5292 28.2415 16.3108 29.554 17.3549 30.6207C17.5031 30.7711 17.6502 30.9341 17.7915 31.1046C18.1454 31.5315 18.332 32.0292 18.332 32.5439C18.332 33.8123 17.2099 34.9255 15.9308 34.9255ZM5.33205 38.7917C5.12465 38.7917 4.92032 38.6967 4.78648 38.5183C1.65509 34.329 0 29.339 0 24.0868C0 23.6007 0.0146438 23.1106 0.0432503 22.6301C0.0657268 22.2527 0.384144 21.9615 0.763521 21.9885C1.13881 22.0108 1.42522 22.3344 1.40274 22.7114C1.37584 23.165 1.36221 23.6281 1.36221 24.0868C1.36221 29.0406 2.92331 33.747 5.87591 37.698C6.10204 37.9995 6.04108 38.4277 5.74003 38.6543C5.61777 38.7473 5.47406 38.7917 5.33205 38.7917ZM25.6658 39.4131C25.2895 39.4131 24.9847 39.1072 24.9847 38.7295V37.3433C24.9847 36.9991 25.2405 36.7082 25.5814 36.6655C28.5064 36.2988 31.2298 34.8957 33.2499 32.7162L33.3187 32.6403C33.8524 32.0586 34.3404 31.4044 34.8127 30.6381C34.8686 30.5486 34.9238 30.4597 34.9759 30.3691C35.075 30.1941 35.17 30.0147 35.2619 29.8332C35.3426 29.6756 35.4179 29.5164 35.4911 29.3557L35.534 29.2621C35.5933 29.1322 35.6529 29.0027 35.7067 28.8697C35.8191 28.5949 35.9219 28.3174 36.0118 28.0443C36.13 27.6864 36.5131 27.4903 36.8724 27.6109C37.2293 27.7295 37.4231 28.1157 37.3049 28.4746C37.2051 28.7767 37.0917 29.0837 36.9674 29.3882C36.9065 29.5382 36.8394 29.6849 36.7723 29.8322L36.7294 29.9255C36.647 30.1059 36.5639 30.2813 36.4753 30.4553C36.3738 30.6549 36.269 30.8534 36.1576 31.0486C36.0966 31.1552 36.0333 31.2574 35.9703 31.3596C35.453 32.1984 34.9139 32.9199 34.323 33.5641L34.2484 33.6465C32.1476 35.9132 29.3605 37.4208 26.3469 37.9339V38.7295C26.3469 39.1072 26.0418 39.4131 25.6658 39.4131ZM15.74 43.0353C15.6457 43.0353 15.5504 43.0152 15.4587 42.9738C11.5519 41.1921 8.33709 38.2835 6.16129 34.5645C5.97093 34.2385 6.07956 33.8198 6.40377 33.6284C6.72866 33.4377 7.14584 33.547 7.3362 33.8721C9.36897 37.3477 12.3727 40.0642 16.022 41.729C16.3646 41.8852 16.5162 42.2906 16.3609 42.6341C16.2464 42.886 15.9989 43.0353 15.74 43.0353ZM31.8271 43.2203C31.5622 43.2203 31.3105 43.0641 31.2002 42.8043C31.0527 42.4564 31.2138 42.0555 31.5594 41.9075C35.2476 40.3308 38.3143 37.6854 40.4292 34.259C40.627 33.938 41.0466 33.8389 41.3667 34.0378C41.6868 34.2364 41.7856 34.6578 41.5874 34.9788C39.3241 38.6468 36.0411 41.4775 32.0938 43.1652C32.0066 43.2025 31.916 43.2203 31.8271 43.2203ZM25.6658 44.3502C25.2895 44.3502 24.9847 44.0446 24.9847 43.6666V42.8439C24.9847 42.4666 25.2895 42.1604 25.6658 42.1604C26.0418 42.1604 26.3469 42.4666 26.3469 42.8439V43.6666C26.3469 44.0446 26.0418 44.3502 25.6658 44.3502ZM22.3345 44.7552C22.3158 44.7552 22.2967 44.7545 22.278 44.7528C22.1789 44.7446 22.0798 44.735 21.9807 44.7258C21.6064 44.6896 21.3323 44.3553 21.3691 43.9794C21.3888 43.7739 21.4978 43.5983 21.6534 43.4875V33.4913C21.6534 33.1137 21.9582 32.8078 22.3345 32.8078C22.7105 32.8078 23.0156 33.1137 23.0156 33.4913V44.0716C23.0156 44.263 22.9356 44.4452 22.7956 44.5747C22.6693 44.6913 22.5048 44.7552 22.3345 44.7552ZM35.2446 45.271C35.0045 45.271 34.7715 45.1435 34.6472 44.9176C34.4657 44.5867 34.5856 44.1708 34.9149 43.9886C39.6111 41.3907 43.2483 37.1997 45.1557 32.1871C45.2899 31.8337 45.6825 31.657 46.035 31.7923C46.3865 31.927 46.5625 32.3221 46.4283 32.6745C44.4058 37.9889 40.5507 42.4321 35.5729 45.1862C35.4683 45.2436 35.3556 45.271 35.2446 45.271ZM30.7172 47.1802C30.4244 47.1802 30.154 46.9888 30.0654 46.6931C29.9568 46.3312 30.1611 45.9504 30.5214 45.8417C30.7762 45.7648 31.0289 45.6838 31.2798 45.5984C31.6381 45.4757 32.0229 45.6695 32.1435 46.0267C32.2644 46.3845 32.073 46.7717 31.7168 46.8934C31.4511 46.9837 31.1831 47.0694 30.9137 47.1508C30.8484 47.1699 30.7823 47.1802 30.7172 47.1802ZM21.2185 48.0001C21.1916 48.0001 21.1644 47.9984 21.1371 47.9957C16.9316 47.4933 12.9196 45.8701 9.53482 43.3016C9.23479 43.0736 9.17519 42.645 9.402 42.3436C9.62881 42.0425 10.0555 41.9833 10.3562 42.211C13.5489 44.6339 17.3325 46.1644 21.2982 46.6378C21.6715 46.6825 21.9381 47.0226 21.8942 47.3976C21.8526 47.7448 21.5587 48.0001 21.2185 48.0001Z"/>
<path fill-rule="evenodd" clip-rule="evenodd" d="M17.37 9.66538C17.1081 9.66538 16.8589 9.51294 16.7465 9.25729C16.5949 8.91174 16.7509 8.50809 17.0949 8.356C17.3547 8.24116 17.6176 8.13247 17.8829 8.03028C18.233 7.89527 18.6273 8.06992 18.7629 8.42265C18.8981 8.77503 18.723 9.17047 18.3716 9.30582C18.1271 9.40084 17.8843 9.50098 17.6445 9.60693C17.5549 9.64624 17.462 9.66538 17.37 9.66538ZM36.6862 14.2648C36.4897 14.2648 36.2946 14.18 36.1601 14.016C34.0255 11.415 31.1727 9.59736 27.9091 8.75896C27.3101 8.60516 26.6995 8.48554 26.0943 8.40385C25.7214 8.35292 25.4602 8.00875 25.5103 7.63483C25.561 7.26024 25.9077 7.00048 26.2765 7.04867C26.9338 7.13753 27.5965 7.26741 28.2466 7.43455C31.7925 8.3454 34.8922 10.3206 37.2117 13.1468C37.4508 13.438 37.4092 13.869 37.1187 14.1089C36.992 14.2139 36.8384 14.2648 36.6862 14.2648ZM7.61555 26.258C7.26716 26.258 6.96986 25.9911 6.93785 25.636C6.89221 25.1284 6.86905 24.6113 6.86871 24.0986C6.86871 22.6648 7.04989 21.2266 7.40781 19.8239C8.35455 16.1118 10.4411 12.9052 13.4421 10.5509C13.7377 10.3185 14.1661 10.3705 14.3977 10.6685C14.6296 10.9659 14.5775 11.3955 14.2809 11.6276C11.5193 13.7948 9.59927 16.7461 8.72746 20.163C8.3978 21.4549 8.23093 22.7793 8.23093 24.0986C8.23127 24.5696 8.25272 25.0461 8.29495 25.5129C8.32833 25.8889 8.05248 26.2208 7.67753 26.2553C7.65675 26.257 7.63598 26.258 7.61555 26.258ZM36.519 35.4784C36.3627 35.4784 36.2054 35.4251 36.0773 35.3153C35.7909 35.0703 35.7568 34.6383 36.001 34.3519C37.5683 32.5086 38.6686 30.3752 39.272 28.01C39.6014 26.7184 39.7686 25.3943 39.7686 24.0747C39.7686 22.5418 39.5452 21.0181 39.1041 19.5461C38.9958 19.1848 39.2002 18.803 39.5602 18.6947C39.9215 18.5867 40.3005 18.791 40.4085 19.1523C40.8883 20.7522 41.1308 22.4085 41.1308 24.0747C41.1308 25.5085 40.9493 26.9467 40.5917 28.3491C39.9365 30.9179 38.7404 33.2363 37.0373 35.2388C36.9025 35.3974 36.7114 35.4784 36.519 35.4784ZM32.8175 38.7024C32.5924 38.7024 32.3721 38.5903 32.242 38.3849C32.0404 38.0671 32.1344 37.6439 32.4518 37.4419C32.6731 37.3001 32.8911 37.1542 33.105 37.0017C33.4125 36.7847 33.8375 36.8582 34.0544 37.1661C34.2714 37.4744 34.1981 37.9006 33.8913 38.119C33.6587 38.2831 33.4227 38.4427 33.1823 38.5958C33.0692 38.6676 32.9429 38.7024 32.8175 38.7024ZM18.6049 40.3628C18.531 40.3628 18.4557 40.3509 18.3821 40.3252C14.2945 38.9061 10.9199 36.0058 8.87934 32.1596C8.70293 31.8271 8.8286 31.4132 9.16098 31.2351C9.49302 31.0581 9.90509 31.1852 10.0822 31.5181C11.96 35.058 15.0658 37.7273 18.8276 39.0336C19.1831 39.1567 19.3715 39.5463 19.2485 39.9031C19.1508 40.1858 18.8872 40.3628 18.6049 40.3628Z"/>
<path fill-rule="evenodd" clip-rule="evenodd" d="M22.779 23.4363C22.8982 23.1048 22.8022 22.734 22.5379 22.5029C21.8738 21.9212 21.6038 21.0503 21.8153 20.1719C22.0097 19.3639 22.6833 18.6958 23.4915 18.5091C23.6624 18.4695 23.8327 18.4493 24.0003 18.4456C24.0122 18.4452 24.0238 18.4439 24.0357 18.4442C24.0479 18.4439 24.0595 18.4452 24.0714 18.4456C24.239 18.4493 24.4093 18.4695 24.5802 18.5091C25.3884 18.6958 26.062 19.3639 26.2564 20.1719C26.4679 21.0503 26.1979 21.9212 25.5338 22.5029C25.2692 22.734 25.1735 23.1048 25.2927 23.4363L27.1616 28.6414H20.9101L22.779 23.4363ZM27.6513 30.3503C28.093 30.3503 28.5088 30.1336 28.7629 29.7703C28.9448 29.5102 29.0268 29.1971 29.0044 28.8875C29.0153 28.7678 29.0023 28.6441 28.9591 28.5241L27.1051 23.3611C27.7174 22.6383 28.06 21.7178 28.06 20.7591C28.06 19.526 27.5083 18.3779 26.5462 17.6092C26.3736 17.4715 26.189 17.3553 25.9996 17.2493C25.9874 17.2421 25.9748 17.2357 25.9625 17.2288C25.8229 17.1526 25.6799 17.0853 25.5327 17.0265C25.5096 17.0173 25.4868 17.0067 25.4633 16.9978C25.042 16.8388 24.5966 16.7524 24.1419 16.7418C24.1062 16.7407 24.0711 16.7363 24.0357 16.7363C24.0006 16.7363 23.9648 16.7407 23.9298 16.7418C23.4751 16.7524 23.0293 16.8388 22.6084 16.9978C22.5849 17.0067 22.5621 17.0173 22.5386 17.0265C22.3918 17.0853 22.2488 17.1526 22.1092 17.2288C22.0969 17.2357 22.0843 17.2421 22.072 17.2493C21.8827 17.3553 21.6981 17.4715 21.5255 17.6092C20.5634 18.3779 20.0117 19.526 20.0117 20.7591C20.0117 21.7178 20.3543 22.6383 20.9666 23.3611L19.1123 28.5241C19.069 28.6441 19.0564 28.7678 19.0673 28.8871C19.0445 29.1971 19.1263 29.5102 19.3088 29.7703C19.5628 30.1336 19.9783 30.3503 20.4204 30.3503H27.6513Z"/>
</mask>
<path fill-rule="evenodd" clip-rule="evenodd" d="M36.4753 4.99463C36.3507 4.99463 36.2243 4.96011 36.1113 4.888C32.4943 2.5847 28.3061 1.36726 24.0002 1.36726C23.5084 1.36726 23.0092 1.38333 22.5174 1.41443C21.9674 1.44998 21.4137 1.50603 20.8725 1.58156C20.502 1.63078 20.1557 1.37205 20.1042 0.998136C20.0525 0.624222 20.313 0.279019 20.6856 0.227068C21.2597 0.14709 21.8472 0.0879609 22.4306 0.0500227C22.9513 0.0172113 23.4795 0.00012207 24.0002 0.00012207C28.565 0.00012207 33.0054 1.29105 36.8407 3.73413C37.1585 3.93612 37.2525 4.35857 37.0509 4.67711C36.9215 4.88253 36.7008 4.99463 36.4753 4.99463ZM30.2769 5.71375C30.2061 5.71375 30.1339 5.70247 30.063 5.67889C28.8129 5.26396 27.5177 4.97959 26.2134 4.83399C23.5449 4.53698 20.8807 4.77999 18.3708 5.5473C18.0109 5.65735 17.6301 5.45399 17.5208 5.09272C17.4111 4.73146 17.6138 4.34968 17.9737 4.23963C20.6604 3.41832 23.5125 3.15548 26.364 3.47574C27.7623 3.63159 29.151 3.93612 30.4908 4.38113C30.848 4.49973 31.0418 4.88663 30.9233 5.24448C30.829 5.53192 30.5626 5.71375 30.2769 5.71375ZM40.3236 8.05703C40.1513 8.05703 39.9789 7.99209 39.8465 7.86153C39.6571 7.67491 39.4644 7.49206 39.2685 7.31262C38.991 7.05799 38.9712 6.62563 39.2246 6.34674C39.4783 6.06852 39.9091 6.04836 40.187 6.30265C40.3951 6.49336 40.5994 6.6875 40.8004 6.88539C41.0691 7.14993 41.0731 7.58263 40.8099 7.85196C40.6764 7.98867 40.4996 8.05703 40.3236 8.05703ZM37.9179 10.375C37.747 10.375 37.576 10.3111 37.4439 10.1823C37.2542 9.99803 37.0611 9.81688 36.8642 9.64052C36.5836 9.38863 36.5594 8.95661 36.8101 8.67532C37.0614 8.39403 37.4912 8.36942 37.7722 8.62098C37.983 8.81032 38.1893 9.00343 38.3923 9.20098C38.6624 9.46348 38.6688 9.89618 38.4069 10.1676C38.2734 10.3056 38.096 10.375 37.9179 10.375ZM5.0797 11.1232C4.94109 11.1232 4.80181 11.0811 4.68125 10.9936C4.37611 10.7722 4.308 10.3446 4.528 10.039C7.01642 6.58564 10.3678 3.84008 14.2198 2.09903C14.5634 1.94351 14.9666 2.09732 15.1206 2.4415C15.2752 2.78567 15.1223 3.19069 14.7793 3.34552C11.1439 4.98848 7.98087 7.58024 5.63241 10.8402C5.49892 11.0251 5.29084 11.1232 5.0797 11.1232ZM21.3047 11.6735C20.9887 11.6735 20.7057 11.452 20.6386 11.1293C20.5616 10.7599 20.7983 10.3979 21.1664 10.3207C21.4491 10.2615 21.7348 10.2113 22.0161 10.171C22.3876 10.118 22.7333 10.3764 22.7868 10.7506C22.8402 11.1242 22.5814 11.4704 22.2089 11.5241C21.9562 11.5603 21.6987 11.6058 21.4443 11.6591C21.3977 11.6687 21.3507 11.6735 21.3047 11.6735ZM1.32339 19.2905C1.27026 19.2905 1.2168 19.2847 1.16299 19.2713C0.797236 19.1828 0.57247 18.8137 0.660674 18.4463C0.727082 18.1708 0.798257 17.897 0.87386 17.625C0.975345 17.2613 1.34995 17.0491 1.71298 17.1499C2.07533 17.2514 2.28716 17.6287 2.18601 17.992C2.11484 18.2487 2.04741 18.5071 1.98509 18.7676C1.90948 19.0806 1.63091 19.2905 1.32339 19.2905ZM15.3426 19.7601C15.2268 19.7601 15.1097 19.7307 15.0021 19.6685C14.6765 19.4792 14.5655 19.0608 14.7538 18.7341C14.8999 18.4815 15.0572 18.2316 15.2224 17.9931C15.4363 17.6831 15.8616 17.6051 16.1698 17.8205C16.479 18.0355 16.5564 18.4613 16.3418 18.7717C16.1977 18.9801 16.0605 19.1982 15.9331 19.419C15.8068 19.6381 15.5779 19.7601 15.3426 19.7601ZM32.8369 20.0988C32.593 20.0988 32.3567 19.9672 32.2344 19.7355C32.1827 19.6374 32.1292 19.54 32.0733 19.4433C32.0093 19.3308 31.9422 19.2232 31.8748 19.1155C31.7886 18.9788 31.7008 18.841 31.6068 18.7081C31.5731 18.6599 31.54 18.6161 31.5063 18.5727L31.4477 18.4948C30.893 17.7514 30.2578 17.115 29.5597 16.6027L29.4528 16.522C29.418 16.4954 29.3836 16.4691 29.3479 16.4438C29.212 16.3474 29.071 16.2582 28.93 16.169C28.8282 16.1051 28.725 16.0401 28.6191 15.9793C28.4962 15.9085 28.3729 15.8419 28.2482 15.7773C28.1079 15.7048 27.9635 15.6351 27.8171 15.5688C27.7023 15.5165 27.6087 15.4738 27.514 15.4348C27.3247 15.3572 27.12 15.282 26.9065 15.212L26.8176 15.1809C26.7896 15.1706 26.7617 15.1607 26.7331 15.1522C26.1715 14.9796 25.5909 14.8603 25.0048 14.7974C24.7971 14.7755 24.5852 14.768 24.3615 14.7598C24.2913 14.757 24.2369 14.7536 24.1827 14.7499C24.1265 14.7461 24.07 14.7417 24.0124 14.7417C22.2599 14.7417 20.5616 15.227 19.0901 16.1461C18.7703 16.345 18.3504 16.2472 18.1518 15.9266C17.9533 15.606 18.051 15.1846 18.3705 14.985C20.0583 13.9313 22.0052 13.3745 24.0005 13.3745C24.1037 13.3749 24.1899 13.38 24.276 13.3861C24.3169 13.3889 24.3577 13.3916 24.399 13.3933C24.6472 13.4022 24.8924 13.4108 25.1485 13.4378C25.8218 13.5099 26.4879 13.6466 27.1305 13.8445C27.1772 13.8588 27.2252 13.8752 27.2732 13.8923L27.3342 13.9139C27.5746 13.9928 27.8099 14.0793 28.0296 14.1695C28.141 14.2157 28.2503 14.2649 28.3589 14.3144C28.5449 14.3989 28.7104 14.4785 28.8731 14.5626C29.0175 14.6378 29.1589 14.7136 29.2971 14.7936C29.4174 14.8627 29.5359 14.9368 29.6544 15.0113C29.8172 15.1139 29.9776 15.2164 30.1332 15.3265C30.1822 15.3613 30.2306 15.3979 30.2786 15.4348L30.3627 15.498C31.1709 16.0914 31.902 16.8235 32.5378 17.6752L32.5896 17.7432C32.6339 17.8013 32.6778 17.8598 32.7197 17.9192C32.8256 18.0693 32.9268 18.2272 33.0269 18.3858C33.1052 18.5102 33.1812 18.6339 33.2537 18.7604C33.3167 18.8698 33.3783 18.9819 33.4383 19.0953C33.6143 19.4286 33.4877 19.8425 33.1553 20.0195C33.0534 20.0735 32.9445 20.0988 32.8369 20.0988ZM4.17144 22.2353C4.14283 22.2353 4.11423 22.2336 4.08528 22.2302C3.71169 22.1827 3.44776 21.8409 3.49442 21.4663C4.20754 15.7944 7.28035 10.6132 11.9248 7.25178C12.2303 7.03133 12.6563 7.10003 12.8756 7.40627C13.096 7.71217 13.0269 8.1394 12.7217 8.36053C8.38273 11.5012 5.51186 16.3402 4.84608 21.6372C4.80249 21.9831 4.50927 22.2353 4.17144 22.2353ZM37.1145 22.4424C36.7839 22.4424 36.4937 22.2004 36.442 21.8621C36.4229 21.7349 36.4014 21.6085 36.3755 21.4837C36.3575 21.3986 36.3347 21.3156 36.3119 21.2322C36.2942 21.1662 36.2761 21.1002 36.2594 21.0339L36.2356 20.9358C36.176 20.6928 36.1194 20.4635 36.0507 20.2441C36.0241 20.161 35.9924 20.0793 35.9611 19.9973C35.9376 19.9358 35.9144 19.8743 35.892 19.8124L35.8695 19.7485C35.783 19.5058 35.7016 19.2761 35.6069 19.0577C35.5729 18.9778 35.5337 18.9005 35.4956 18.8229C35.4673 18.7662 35.439 18.7095 35.4121 18.652L35.3886 18.6021C35.2762 18.3656 35.17 18.1421 35.0522 17.9295C35.0096 17.8529 34.9629 17.7784 34.9163 17.7039L34.823 17.5525C34.6929 17.3351 34.5451 17.0897 34.3922 16.8676C34.3418 16.7958 34.288 16.725 34.2338 16.6546L34.1306 16.5183C33.9668 16.2971 33.805 16.0822 33.6344 15.8805C33.5728 15.8074 33.5071 15.7373 33.442 15.6669L33.3405 15.5561C33.1662 15.3644 32.9799 15.1617 32.7878 14.9751C32.7146 14.904 32.6387 14.8367 32.5627 14.7687L32.4571 14.6737C32.2688 14.5031 32.0662 14.3226 31.8591 14.1579C31.7696 14.0861 31.6786 14.0195 31.5877 13.9528L31.4876 13.879C31.3016 13.7416 31.0799 13.5803 30.8548 13.4337C30.7387 13.3585 30.6188 13.2877 30.4986 13.2166L30.4424 13.1828C30.2626 13.0758 30.0266 12.9374 29.7858 12.8126L29.7467 12.7925C29.4122 12.6205 29.2798 12.2084 29.4511 11.8724C29.6224 11.5371 30.0321 11.4028 30.3678 11.5757L30.4145 11.6C30.6832 11.7387 30.9424 11.8908 31.1371 12.0074L31.1916 12.0392C31.3275 12.1198 31.4627 12.2002 31.5955 12.2863C31.8513 12.4527 32.0934 12.6288 32.2964 12.7788L32.3921 12.8492C32.4983 12.9275 32.6046 13.0054 32.7078 13.0885C32.9428 13.2758 33.1651 13.4736 33.3702 13.6592L33.4686 13.7474C33.5585 13.8281 33.6481 13.9084 33.7349 13.9925C33.9556 14.2064 34.1579 14.4272 34.3469 14.635L34.4398 14.7362C34.5188 14.8216 34.5975 14.9068 34.6728 14.9956C34.8693 15.228 35.0453 15.4618 35.2228 15.7011L35.3151 15.8231C35.3818 15.9102 35.4482 15.9974 35.5109 16.088C35.6893 16.3467 35.8487 16.6119 35.9894 16.8464L36.0711 16.9787C36.1297 17.0726 36.1879 17.1666 36.2421 17.2637C36.3813 17.5149 36.5016 17.7689 36.6184 18.0146L36.7147 18.2132C36.7641 18.3126 36.8132 18.4121 36.8574 18.515C36.9691 18.7744 37.0624 19.0359 37.152 19.2884L37.1745 19.351C37.1932 19.4033 37.2133 19.4559 37.2334 19.5082C37.2739 19.6145 37.3141 19.7215 37.3488 19.8305C37.4319 20.0933 37.496 20.3555 37.5583 20.6091L37.5818 20.7051C37.5954 20.7609 37.6107 20.8162 37.6257 20.8716C37.6557 20.9813 37.6853 21.091 37.7085 21.2035C37.7398 21.3521 37.7657 21.5032 37.7888 21.6556C37.8454 22.0289 37.59 22.3775 37.2184 22.4346C37.1833 22.44 37.1489 22.4424 37.1145 22.4424ZM47.2399 26.7161C47.2215 26.7161 47.2024 26.7154 47.1834 26.7137C46.8087 26.6826 46.5295 26.3525 46.5605 25.9765C46.6119 25.3514 46.6378 24.7153 46.6378 24.0864C46.6381 20.6699 45.9015 17.3864 44.4487 14.3261C44.2869 13.9853 44.431 13.5772 44.7705 13.4149C45.1094 13.2532 45.5167 13.3967 45.6784 13.7378C47.2195 16.9834 48.0003 20.4652 48 24.0864C48 24.7526 47.9724 25.4255 47.9183 26.0886C47.889 26.4458 47.591 26.7161 47.2399 26.7161ZM10.8705 27.0596C10.5452 27.0596 10.2578 26.8251 10.2003 26.4919C10.064 25.7034 9.99491 24.8934 9.99491 24.0847C9.99491 23.6776 10.0126 23.2631 10.0474 22.8526C10.4383 18.2672 13.0939 14.1517 17.151 11.8437C17.4786 11.6581 17.8937 11.7733 18.0793 12.1014C18.2646 12.4298 18.1498 12.8472 17.8229 13.0334C14.1565 15.1187 11.7573 18.8328 11.4051 22.9691C11.3731 23.341 11.3571 23.7163 11.3571 24.0847C11.3571 24.8155 11.4194 25.5469 11.5424 26.2595C11.6067 26.6314 11.3581 26.9851 10.9873 27.049C10.9481 27.0562 10.9093 27.0596 10.8705 27.0596ZM4.15203 27.1594C3.81216 27.1594 3.51826 26.9041 3.47671 26.5568C3.44334 26.2762 3.41575 25.9932 3.39362 25.7096C3.36433 25.3336 3.64494 25.0048 4.01989 24.9754C4.39144 24.9453 4.72246 25.2273 4.75208 25.604C4.77252 25.8688 4.79806 26.1327 4.82939 26.3942C4.874 26.7694 4.60735 27.1099 4.23376 27.1546C4.20618 27.1577 4.17893 27.1594 4.15203 27.1594ZM43.489 29.2405C43.4386 29.2405 43.3879 29.2358 43.3368 29.2241C42.97 29.1401 42.7405 28.7737 42.8243 28.4056C43.144 26.9974 43.3065 25.5441 43.3065 24.0864C43.3065 23.273 43.2554 22.4459 43.1549 21.6273C42.7888 18.6414 41.694 15.7339 39.9888 13.219C39.7773 12.907 39.858 12.4818 40.169 12.2695C40.4792 12.0576 40.9035 12.1376 41.115 12.45C42.9414 15.1436 44.1146 18.2593 44.5073 21.4605C44.6142 22.3337 44.6687 23.2173 44.6687 24.0864C44.6687 25.6463 44.495 27.2018 44.1524 28.7094C44.0802 29.0262 43.7996 29.2405 43.489 29.2405ZM25.6651 34.6496C25.3385 34.6496 25.0501 34.4131 24.9939 34.0792C24.9319 33.707 25.1819 33.3546 25.5531 33.2917C27.4789 32.967 29.2219 32.0661 30.5929 30.6866L30.6124 30.6624C30.642 30.6279 30.6716 30.593 30.7033 30.5609C30.9202 30.3353 31.1337 30.0882 31.3391 29.8247L31.3967 29.7478C31.5628 29.5297 31.726 29.2949 31.8806 29.0495C31.9157 28.9928 31.9511 28.9333 31.9862 28.8738C32.1084 28.6704 32.2276 28.451 32.3424 28.219C32.3819 28.1386 32.4227 28.0569 32.4609 27.9729C32.5464 27.7873 32.6312 27.5795 32.7211 27.3378L32.7521 27.2537C32.779 27.1837 32.8055 27.114 32.8287 27.0425C32.9012 26.8262 32.9622 26.5968 33.0119 26.401L33.0449 26.2773C33.0626 26.211 33.0807 26.1453 33.0953 26.0783C33.1222 25.9519 33.1454 25.8223 33.1658 25.6921C33.2247 25.3196 33.5728 25.0663 33.9454 25.1241C34.3169 25.1825 34.5703 25.5332 34.5114 25.9064C34.4868 26.0619 34.4593 26.2168 34.4262 26.3695C34.4065 26.4608 34.383 26.5476 34.3595 26.6341L34.3312 26.7414C34.2754 26.9602 34.2066 27.2185 34.1211 27.4749C34.0921 27.562 34.0594 27.6495 34.0267 27.737L33.9975 27.815C33.8956 28.0887 33.7979 28.3276 33.6985 28.5436C33.6552 28.639 33.6092 28.7327 33.5629 28.8266C33.4315 29.0922 33.2942 29.3441 33.1549 29.5765C33.1158 29.6428 33.0752 29.7105 33.0334 29.7782C32.8556 30.0598 32.669 30.3288 32.4776 30.5797L32.4129 30.6658C32.1772 30.9683 31.9323 31.2513 31.6841 31.5093L31.647 31.5517C31.6228 31.5797 31.5986 31.6077 31.5731 31.6348C29.9844 33.2343 27.9863 34.2672 25.7789 34.6397C25.7407 34.6466 25.7023 34.6496 25.6651 34.6496ZM15.9308 34.9255C15.361 34.9255 14.8267 34.705 14.385 34.287C13.8816 33.8109 13.41 33.2928 12.9826 32.7479C12.7496 32.4513 12.8004 32.0213 13.0963 31.7882C13.3923 31.5548 13.82 31.605 14.0526 31.9024C14.4388 32.3945 14.8652 32.8621 15.3195 33.2924C15.5061 33.4691 15.7118 33.5583 15.9308 33.5583C16.4552 33.5583 16.9698 33.0562 16.9698 32.5439C16.9698 32.3494 16.8938 32.1594 16.7443 31.9793C16.6279 31.8385 16.5063 31.7038 16.3847 31.5797C15.1866 30.3572 14.291 28.8516 13.7931 27.2244C13.6828 26.8631 13.885 26.481 14.2447 26.3702C14.6043 26.2602 14.985 26.4625 15.0957 26.8231C15.5292 28.2415 16.3108 29.554 17.3549 30.6207C17.5031 30.7711 17.6502 30.9341 17.7915 31.1046C18.1454 31.5315 18.332 32.0292 18.332 32.5439C18.332 33.8123 17.2099 34.9255 15.9308 34.9255ZM5.33205 38.7917C5.12465 38.7917 4.92032 38.6967 4.78648 38.5183C1.65509 34.329 0 29.339 0 24.0868C0 23.6007 0.0146438 23.1106 0.0432503 22.6301C0.0657268 22.2527 0.384144 21.9615 0.763521 21.9885C1.13881 22.0108 1.42522 22.3344 1.40274 22.7114C1.37584 23.165 1.36221 23.6281 1.36221 24.0868C1.36221 29.0406 2.92331 33.747 5.87591 37.698C6.10204 37.9995 6.04108 38.4277 5.74003 38.6543C5.61777 38.7473 5.47406 38.7917 5.33205 38.7917ZM25.6658 39.4131C25.2895 39.4131 24.9847 39.1072 24.9847 38.7295V37.3433C24.9847 36.9991 25.2405 36.7082 25.5814 36.6655C28.5064 36.2988 31.2298 34.8957 33.2499 32.7162L33.3187 32.6403C33.8524 32.0586 34.3404 31.4044 34.8127 30.6381C34.8686 30.5486 34.9238 30.4597 34.9759 30.3691C35.075 30.1941 35.17 30.0147 35.2619 29.8332C35.3426 29.6756 35.4179 29.5164 35.4911 29.3557L35.534 29.2621C35.5933 29.1322 35.6529 29.0027 35.7067 28.8697C35.8191 28.5949 35.9219 28.3174 36.0118 28.0443C36.13 27.6864 36.5131 27.4903 36.8724 27.6109C37.2293 27.7295 37.4231 28.1157 37.3049 28.4746C37.2051 28.7767 37.0917 29.0837 36.9674 29.3882C36.9065 29.5382 36.8394 29.6849 36.7723 29.8322L36.7294 29.9255C36.647 30.1059 36.5639 30.2813 36.4753 30.4553C36.3738 30.6549 36.269 30.8534 36.1576 31.0486C36.0966 31.1552 36.0333 31.2574 35.9703 31.3596C35.453 32.1984 34.9139 32.9199 34.323 33.5641L34.2484 33.6465C32.1476 35.9132 29.3605 37.4208 26.3469 37.9339V38.7295C26.3469 39.1072 26.0418 39.4131 25.6658 39.4131ZM15.74 43.0353C15.6457 43.0353 15.5504 43.0152 15.4587 42.9738C11.5519 41.1921 8.33709 38.2835 6.16129 34.5645C5.97093 34.2385 6.07956 33.8198 6.40377 33.6284C6.72866 33.4377 7.14584 33.547 7.3362 33.8721C9.36897 37.3477 12.3727 40.0642 16.022 41.729C16.3646 41.8852 16.5162 42.2906 16.3609 42.6341C16.2464 42.886 15.9989 43.0353 15.74 43.0353ZM31.8271 43.2203C31.5622 43.2203 31.3105 43.0641 31.2002 42.8043C31.0527 42.4564 31.2138 42.0555 31.5594 41.9075C35.2476 40.3308 38.3143 37.6854 40.4292 34.259C40.627 33.938 41.0466 33.8389 41.3667 34.0378C41.6868 34.2364 41.7856 34.6578 41.5874 34.9788C39.3241 38.6468 36.0411 41.4775 32.0938 43.1652C32.0066 43.2025 31.916 43.2203 31.8271 43.2203ZM25.6658 44.3502C25.2895 44.3502 24.9847 44.0446 24.9847 43.6666V42.8439C24.9847 42.4666 25.2895 42.1604 25.6658 42.1604C26.0418 42.1604 26.3469 42.4666 26.3469 42.8439V43.6666C26.3469 44.0446 26.0418 44.3502 25.6658 44.3502ZM22.3345 44.7552C22.3158 44.7552 22.2967 44.7545 22.278 44.7528C22.1789 44.7446 22.0798 44.735 21.9807 44.7258C21.6064 44.6896 21.3323 44.3553 21.3691 43.9794C21.3888 43.7739 21.4978 43.5983 21.6534 43.4875V33.4913C21.6534 33.1137 21.9582 32.8078 22.3345 32.8078C22.7105 32.8078 23.0156 33.1137 23.0156 33.4913V44.0716C23.0156 44.263 22.9356 44.4452 22.7956 44.5747C22.6693 44.6913 22.5048 44.7552 22.3345 44.7552ZM35.2446 45.271C35.0045 45.271 34.7715 45.1435 34.6472 44.9176C34.4657 44.5867 34.5856 44.1708 34.9149 43.9886C39.6111 41.3907 43.2483 37.1997 45.1557 32.1871C45.2899 31.8337 45.6825 31.657 46.035 31.7923C46.3865 31.927 46.5625 32.3221 46.4283 32.6745C44.4058 37.9889 40.5507 42.4321 35.5729 45.1862C35.4683 45.2436 35.3556 45.271 35.2446 45.271ZM30.7172 47.1802C30.4244 47.1802 30.154 46.9888 30.0654 46.6931C29.9568 46.3312 30.1611 45.9504 30.5214 45.8417C30.7762 45.7648 31.0289 45.6838 31.2798 45.5984C31.6381 45.4757 32.0229 45.6695 32.1435 46.0267C32.2644 46.3845 32.073 46.7717 31.7168 46.8934C31.4511 46.9837 31.1831 47.0694 30.9137 47.1508C30.8484 47.1699 30.7823 47.1802 30.7172 47.1802ZM21.2185 48.0001C21.1916 48.0001 21.1644 47.9984 21.1371 47.9957C16.9316 47.4933 12.9196 45.8701 9.53482 43.3016C9.23479 43.0736 9.17519 42.645 9.402 42.3436C9.62881 42.0425 10.0555 41.9833 10.3562 42.211C13.5489 44.6339 17.3325 46.1644 21.2982 46.6378C21.6715 46.6825 21.9381 47.0226 21.8942 47.3976C21.8526 47.7448 21.5587 48.0001 21.2185 48.0001Z" fill="white"/>
<path fill-rule="evenodd" clip-rule="evenodd" d="M17.37 9.66538C17.1081 9.66538 16.8589 9.51294 16.7465 9.25729C16.5949 8.91174 16.7509 8.50809 17.0949 8.356C17.3547 8.24116 17.6176 8.13247 17.8829 8.03028C18.233 7.89527 18.6273 8.06992 18.7629 8.42265C18.8981 8.77503 18.723 9.17047 18.3716 9.30582C18.1271 9.40084 17.8843 9.50098 17.6445 9.60693C17.5549 9.64624 17.462 9.66538 17.37 9.66538ZM36.6862 14.2648C36.4897 14.2648 36.2946 14.18 36.1601 14.016C34.0255 11.415 31.1727 9.59736 27.9091 8.75896C27.3101 8.60516 26.6995 8.48554 26.0943 8.40385C25.7214 8.35292 25.4602 8.00875 25.5103 7.63483C25.561 7.26024 25.9077 7.00048 26.2765 7.04867C26.9338 7.13753 27.5965 7.26741 28.2466 7.43455C31.7925 8.3454 34.8922 10.3206 37.2117 13.1468C37.4508 13.438 37.4092 13.869 37.1187 14.1089C36.992 14.2139 36.8384 14.2648 36.6862 14.2648ZM7.61555 26.258C7.26716 26.258 6.96986 25.9911 6.93785 25.636C6.89221 25.1284 6.86905 24.6113 6.86871 24.0986C6.86871 22.6648 7.04989 21.2266 7.40781 19.8239C8.35455 16.1118 10.4411 12.9052 13.4421 10.5509C13.7377 10.3185 14.1661 10.3705 14.3977 10.6685C14.6296 10.9659 14.5775 11.3955 14.2809 11.6276C11.5193 13.7948 9.59927 16.7461 8.72746 20.163C8.3978 21.4549 8.23093 22.7793 8.23093 24.0986C8.23127 24.5696 8.25272 25.0461 8.29495 25.5129C8.32833 25.8889 8.05248 26.2208 7.67753 26.2553C7.65675 26.257 7.63598 26.258 7.61555 26.258ZM36.519 35.4784C36.3627 35.4784 36.2054 35.4251 36.0773 35.3153C35.7909 35.0703 35.7568 34.6383 36.001 34.3519C37.5683 32.5086 38.6686 30.3752 39.272 28.01C39.6014 26.7184 39.7686 25.3943 39.7686 24.0747C39.7686 22.5418 39.5452 21.0181 39.1041 19.5461C38.9958 19.1848 39.2002 18.803 39.5602 18.6947C39.9215 18.5867 40.3005 18.791 40.4085 19.1523C40.8883 20.7522 41.1308 22.4085 41.1308 24.0747C41.1308 25.5085 40.9493 26.9467 40.5917 28.3491C39.9365 30.9179 38.7404 33.2363 37.0373 35.2388C36.9025 35.3974 36.7114 35.4784 36.519 35.4784ZM32.8175 38.7024C32.5924 38.7024 32.3721 38.5903 32.242 38.3849C32.0404 38.0671 32.1344 37.6439 32.4518 37.4419C32.6731 37.3001 32.8911 37.1542 33.105 37.0017C33.4125 36.7847 33.8375 36.8582 34.0544 37.1661C34.2714 37.4744 34.1981 37.9006 33.8913 38.119C33.6587 38.2831 33.4227 38.4427 33.1823 38.5958C33.0692 38.6676 32.9429 38.7024 32.8175 38.7024ZM18.6049 40.3628C18.531 40.3628 18.4557 40.3509 18.3821 40.3252C14.2945 38.9061 10.9199 36.0058 8.87934 32.1596C8.70293 31.8271 8.8286 31.4132 9.16098 31.2351C9.49302 31.0581 9.90509 31.1852 10.0822 31.5181C11.96 35.058 15.0658 37.7273 18.8276 39.0336C19.1831 39.1567 19.3715 39.5463 19.2485 39.9031C19.1508 40.1858 18.8872 40.3628 18.6049 40.3628Z" fill="white"/>
<path fill-rule="evenodd" clip-rule="evenodd" d="M22.779 23.4363C22.8982 23.1048 22.8022 22.734 22.5379 22.5029C21.8738 21.9212 21.6038 21.0503 21.8153 20.1719C22.0097 19.3639 22.6833 18.6958 23.4915 18.5091C23.6624 18.4695 23.8327 18.4493 24.0003 18.4456C24.0122 18.4452 24.0238 18.4439 24.0357 18.4442C24.0479 18.4439 24.0595 18.4452 24.0714 18.4456C24.239 18.4493 24.4093 18.4695 24.5802 18.5091C25.3884 18.6958 26.062 19.3639 26.2564 20.1719C26.4679 21.0503 26.1979 21.9212 25.5338 22.5029C25.2692 22.734 25.1735 23.1048 25.2927 23.4363L27.1616 28.6414H20.9101L22.779 23.4363ZM27.6513 30.3503C28.093 30.3503 28.5088 30.1336 28.7629 29.7703C28.9448 29.5102 29.0268 29.1971 29.0044 28.8875C29.0153 28.7678 29.0023 28.6441 28.9591 28.5241L27.1051 23.3611C27.7174 22.6383 28.06 21.7178 28.06 20.7591C28.06 19.526 27.5083 18.3779 26.5462 17.6092C26.3736 17.4715 26.189 17.3553 25.9996 17.2493C25.9874 17.2421 25.9748 17.2357 25.9625 17.2288C25.8229 17.1526 25.6799 17.0853 25.5327 17.0265C25.5096 17.0173 25.4868 17.0067 25.4633 16.9978C25.042 16.8388 24.5966 16.7524 24.1419 16.7418C24.1062 16.7407 24.0711 16.7363 24.0357 16.7363C24.0006 16.7363 23.9648 16.7407 23.9298 16.7418C23.4751 16.7524 23.0293 16.8388 22.6084 16.9978C22.5849 17.0067 22.5621 17.0173 22.5386 17.0265C22.3918 17.0853 22.2488 17.1526 22.1092 17.2288C22.0969 17.2357 22.0843 17.2421 22.072 17.2493C21.8827 17.3553 21.6981 17.4715 21.5255 17.6092C20.5634 18.3779 20.0117 19.526 20.0117 20.7591C20.0117 21.7178 20.3543 22.6383 20.9666 23.3611L19.1123 28.5241C19.069 28.6441 19.0564 28.7678 19.0673 28.8871C19.0445 29.1971 19.1263 29.5102 19.3088 29.7703C19.5628 30.1336 19.9783 30.3503 20.4204 30.3503H27.6513Z" fill="white"/>
<path fill-rule="evenodd" clip-rule="evenodd" d="M36.4753 4.99463C36.3507 4.99463 36.2243 4.96011 36.1113 4.888C32.4943 2.5847 28.3061 1.36726 24.0002 1.36726C23.5084 1.36726 23.0092 1.38333 22.5174 1.41443C21.9674 1.44998 21.4137 1.50603 20.8725 1.58156C20.502 1.63078 20.1557 1.37205 20.1042 0.998136C20.0525 0.624222 20.313 0.279019 20.6856 0.227068C21.2597 0.14709 21.8472 0.0879609 22.4306 0.0500227C22.9513 0.0172113 23.4795 0.00012207 24.0002 0.00012207C28.565 0.00012207 33.0054 1.29105 36.8407 3.73413C37.1585 3.93612 37.2525 4.35857 37.0509 4.67711C36.9215 4.88253 36.7008 4.99463 36.4753 4.99463ZM30.2769 5.71375C30.2061 5.71375 30.1339 5.70247 30.063 5.67889C28.8129 5.26396 27.5177 4.97959 26.2134 4.83399C23.5449 4.53698 20.8807 4.77999 18.3708 5.5473C18.0109 5.65735 17.6301 5.45399 17.5208 5.09272C17.4111 4.73146 17.6138 4.34968 17.9737 4.23963C20.6604 3.41832 23.5125 3.15548 26.364 3.47574C27.7623 3.63159 29.151 3.93612 30.4908 4.38113C30.848 4.49973 31.0418 4.88663 30.9233 5.24448C30.829 5.53192 30.5626 5.71375 30.2769 5.71375ZM40.3236 8.05703C40.1513 8.05703 39.9789 7.99209 39.8465 7.86153C39.6571 7.67491 39.4644 7.49206 39.2685 7.31262C38.991 7.05799 38.9712 6.62563 39.2246 6.34674C39.4783 6.06852 39.9091 6.04836 40.187 6.30265C40.3951 6.49336 40.5994 6.6875 40.8004 6.88539C41.0691 7.14993 41.0731 7.58263 40.8099 7.85196C40.6764 7.98867 40.4996 8.05703 40.3236 8.05703ZM37.9179 10.375C37.747 10.375 37.576 10.3111 37.4439 10.1823C37.2542 9.99803 37.0611 9.81688 36.8642 9.64052C36.5836 9.38863 36.5594 8.95661 36.8101 8.67532C37.0614 8.39403 37.4912 8.36942 37.7722 8.62098C37.983 8.81032 38.1893 9.00343 38.3923 9.20098C38.6624 9.46348 38.6688 9.89618 38.4069 10.1676C38.2734 10.3056 38.096 10.375 37.9179 10.375ZM5.0797 11.1232C4.94109 11.1232 4.80181 11.0811 4.68125 10.9936C4.37611 10.7722 4.308 10.3446 4.528 10.039C7.01642 6.58564 10.3678 3.84008 14.2198 2.09903C14.5634 1.94351 14.9666 2.09732 15.1206 2.4415C15.2752 2.78567 15.1223 3.19069 14.7793 3.34552C11.1439 4.98848 7.98087 7.58024 5.63241 10.8402C5.49892 11.0251 5.29084 11.1232 5.0797 11.1232ZM21.3047 11.6735C20.9887 11.6735 20.7057 11.452 20.6386 11.1293C20.5616 10.7599 20.7983 10.3979 21.1664 10.3207C21.4491 10.2615 21.7348 10.2113 22.0161 10.171C22.3876 10.118 22.7333 10.3764 22.7868 10.7506C22.8402 11.1242 22.5814 11.4704 22.2089 11.5241C21.9562 11.5603 21.6987 11.6058 21.4443 11.6591C21.3977 11.6687 21.3507 11.6735 21.3047 11.6735ZM1.32339 19.2905C1.27026 19.2905 1.2168 19.2847 1.16299 19.2713C0.797236 19.1828 0.57247 18.8137 0.660674 18.4463C0.727082 18.1708 0.798257 17.897 0.87386 17.625C0.975345 17.2613 1.34995 17.0491 1.71298 17.1499C2.07533 17.2514 2.28716 17.6287 2.18601 17.992C2.11484 18.2487 2.04741 18.5071 1.98509 18.7676C1.90948 19.0806 1.63091 19.2905 1.32339 19.2905ZM15.3426 19.7601C15.2268 19.7601 15.1097 19.7307 15.0021 19.6685C14.6765 19.4792 14.5655 19.0608 14.7538 18.7341C14.8999 18.4815 15.0572 18.2316 15.2224 17.9931C15.4363 17.6831 15.8616 17.6051 16.1698 17.8205C16.479 18.0355 16.5564 18.4613 16.3418 18.7717C16.1977 18.9801 16.0605 19.1982 15.9331 19.419C15.8068 19.6381 15.5779 19.7601 15.3426 19.7601ZM32.8369 20.0988C32.593 20.0988 32.3567 19.9672 32.2344 19.7355C32.1827 19.6374 32.1292 19.54 32.0733 19.4433C32.0093 19.3308 31.9422 19.2232 31.8748 19.1155C31.7886 18.9788 31.7008 18.841 31.6068 18.7081C31.5731 18.6599 31.54 18.6161 31.5063 18.5727L31.4477 18.4948C30.893 17.7514 30.2578 17.115 29.5597 16.6027L29.4528 16.522C29.418 16.4954 29.3836 16.4691 29.3479 16.4438C29.212 16.3474 29.071 16.2582 28.93 16.169C28.8282 16.1051 28.725 16.0401 28.6191 15.9793C28.4962 15.9085 28.3729 15.8419 28.2482 15.7773C28.1079 15.7048 27.9635 15.6351 27.8171 15.5688C27.7023 15.5165 27.6087 15.4738 27.514 15.4348C27.3247 15.3572 27.12 15.282 26.9065 15.212L26.8176 15.1809C26.7896 15.1706 26.7617 15.1607 26.7331 15.1522C26.1715 14.9796 25.5909 14.8603 25.0048 14.7974C24.7971 14.7755 24.5852 14.768 24.3615 14.7598C24.2913 14.757 24.2369 14.7536 24.1827 14.7499C24.1265 14.7461 24.07 14.7417 24.0124 14.7417C22.2599 14.7417 20.5616 15.227 19.0901 16.1461C18.7703 16.345 18.3504 16.2472 18.1518 15.9266C17.9533 15.606 18.051 15.1846 18.3705 14.985C20.0583 13.9313 22.0052 13.3745 24.0005 13.3745C24.1037 13.3749 24.1899 13.38 24.276 13.3861C24.3169 13.3889 24.3577 13.3916 24.399 13.3933C24.6472 13.4022 24.8924 13.4108 25.1485 13.4378C25.8218 13.5099 26.4879 13.6466 27.1305 13.8445C27.1772 13.8588 27.2252 13.8752 27.2732 13.8923L27.3342 13.9139C27.5746 13.9928 27.8099 14.0793 28.0296 14.1695C28.141 14.2157 28.2503 14.2649 28.3589 14.3144C28.5449 14.3989 28.7104 14.4785 28.8731 14.5626C29.0175 14.6378 29.1589 14.7136 29.2971 14.7936C29.4174 14.8627 29.5359 14.9368 29.6544 15.0113C29.8172 15.1139 29.9776 15.2164 30.1332 15.3265C30.1822 15.3613 30.2306 15.3979 30.2786 15.4348L30.3627 15.498C31.1709 16.0914 31.902 16.8235 32.5378 17.6752L32.5896 17.7432C32.6339 17.8013 32.6778 17.8598 32.7197 17.9192C32.8256 18.0693 32.9268 18.2272 33.0269 18.3858C33.1052 18.5102 33.1812 18.6339 33.2537 18.7604C33.3167 18.8698 33.3783 18.9819 33.4383 19.0953C33.6143 19.4286 33.4877 19.8425 33.1553 20.0195C33.0534 20.0735 32.9445 20.0988 32.8369 20.0988ZM4.17144 22.2353C4.14283 22.2353 4.11423 22.2336 4.08528 22.2302C3.71169 22.1827 3.44776 21.8409 3.49442 21.4663C4.20754 15.7944 7.28035 10.6132 11.9248 7.25178C12.2303 7.03133 12.6563 7.10003 12.8756 7.40627C13.096 7.71217 13.0269 8.1394 12.7217 8.36053C8.38273 11.5012 5.51186 16.3402 4.84608 21.6372C4.80249 21.9831 4.50927 22.2353 4.17144 22.2353ZM37.1145 22.4424C36.7839 22.4424 36.4937 22.2004 36.442 21.8621C36.4229 21.7349 36.4014 21.6085 36.3755 21.4837C36.3575 21.3986 36.3347 21.3156 36.3119 21.2322C36.2942 21.1662 36.2761 21.1002 36.2594 21.0339L36.2356 20.9358C36.176 20.6928 36.1194 20.4635 36.0507 20.2441C36.0241 20.161 35.9924 20.0793 35.9611 19.9973C35.9376 19.9358 35.9144 19.8743 35.892 19.8124L35.8695 19.7485C35.783 19.5058 35.7016 19.2761 35.6069 19.0577C35.5729 18.9778 35.5337 18.9005 35.4956 18.8229C35.4673 18.7662 35.439 18.7095 35.4121 18.652L35.3886 18.6021C35.2762 18.3656 35.17 18.1421 35.0522 17.9295C35.0096 17.8529 34.9629 17.7784 34.9163 17.7039L34.823 17.5525C34.6929 17.3351 34.5451 17.0897 34.3922 16.8676C34.3418 16.7958 34.288 16.725 34.2338 16.6546L34.1306 16.5183C33.9668 16.2971 33.805 16.0822 33.6344 15.8805C33.5728 15.8074 33.5071 15.7373 33.442 15.6669L33.3405 15.5561C33.1662 15.3644 32.9799 15.1617 32.7878 14.9751C32.7146 14.904 32.6387 14.8367 32.5627 14.7687L32.4571 14.6737C32.2688 14.5031 32.0662 14.3226 31.8591 14.1579C31.7696 14.0861 31.6786 14.0195 31.5877 13.9528L31.4876 13.879C31.3016 13.7416 31.0799 13.5803 30.8548 13.4337C30.7387 13.3585 30.6188 13.2877 30.4986 13.2166L30.4424 13.1828C30.2626 13.0758 30.0266 12.9374 29.7858 12.8126L29.7467 12.7925C29.4122 12.6205 29.2798 12.2084 29.4511 11.8724C29.6224 11.5371 30.0321 11.4028 30.3678 11.5757L30.4145 11.6C30.6832 11.7387 30.9424 11.8908 31.1371 12.0074L31.1916 12.0392C31.3275 12.1198 31.4627 12.2002 31.5955 12.2863C31.8513 12.4527 32.0934 12.6288 32.2964 12.7788L32.3921 12.8492C32.4983 12.9275 32.6046 13.0054 32.7078 13.0885C32.9428 13.2758 33.1651 13.4736 33.3702 13.6592L33.4686 13.7474C33.5585 13.8281 33.6481 13.9084 33.7349 13.9925C33.9556 14.2064 34.1579 14.4272 34.3469 14.635L34.4398 14.7362C34.5188 14.8216 34.5975 14.9068 34.6728 14.9956C34.8693 15.228 35.0453 15.4618 35.2228 15.7011L35.3151 15.8231C35.3818 15.9102 35.4482 15.9974 35.5109 16.088C35.6893 16.3467 35.8487 16.6119 35.9894 16.8464L36.0711 16.9787C36.1297 17.0726 36.1879 17.1666 36.2421 17.2637C36.3813 17.5149 36.5016 17.7689 36.6184 18.0146L36.7147 18.2132C36.7641 18.3126 36.8132 18.4121 36.8574 18.515C36.9691 18.7744 37.0624 19.0359 37.152 19.2884L37.1745 19.351C37.1932 19.4033 37.2133 19.4559 37.2334 19.5082C37.2739 19.6145 37.3141 19.7215 37.3488 19.8305C37.4319 20.0933 37.496 20.3555 37.5583 20.6091L37.5818 20.7051C37.5954 20.7609 37.6107 20.8162 37.6257 20.8716C37.6557 20.9813 37.6853 21.091 37.7085 21.2035C37.7398 21.3521 37.7657 21.5032 37.7888 21.6556C37.8454 22.0289 37.59 22.3775 37.2184 22.4346C37.1833 22.44 37.1489 22.4424 37.1145 22.4424ZM47.2399 26.7161C47.2215 26.7161 47.2024 26.7154 47.1834 26.7137C46.8087 26.6826 46.5295 26.3525 46.5605 25.9765C46.6119 25.3514 46.6378 24.7153 46.6378 24.0864C46.6381 20.6699 45.9015 17.3864 44.4487 14.3261C44.2869 13.9853 44.431 13.5772 44.7705 13.4149C45.1094 13.2532 45.5167 13.3967 45.6784 13.7378C47.2195 16.9834 48.0003 20.4652 48 24.0864C48 24.7526 47.9724 25.4255 47.9183 26.0886C47.889 26.4458 47.591 26.7161 47.2399 26.7161ZM10.8705 27.0596C10.5452 27.0596 10.2578 26.8251 10.2003 26.4919C10.064 25.7034 9.99491 24.8934 9.99491 24.0847C9.99491 23.6776 10.0126 23.2631 10.0474 22.8526C10.4383 18.2672 13.0939 14.1517 17.151 11.8437C17.4786 11.6581 17.8937 11.7733 18.0793 12.1014C18.2646 12.4298 18.1498 12.8472 17.8229 13.0334C14.1565 15.1187 11.7573 18.8328 11.4051 22.9691C11.3731 23.341 11.3571 23.7163 11.3571 24.0847C11.3571 24.8155 11.4194 25.5469 11.5424 26.2595C11.6067 26.6314 11.3581 26.9851 10.9873 27.049C10.9481 27.0562 10.9093 27.0596 10.8705 27.0596ZM4.15203 27.1594C3.81216 27.1594 3.51826 26.9041 3.47671 26.5568C3.44334 26.2762 3.41575 25.9932 3.39362 25.7096C3.36433 25.3336 3.64494 25.0048 4.01989 24.9754C4.39144 24.9453 4.72246 25.2273 4.75208 25.604C4.77252 25.8688 4.79806 26.1327 4.82939 26.3942C4.874 26.7694 4.60735 27.1099 4.23376 27.1546C4.20618 27.1577 4.17893 27.1594 4.15203 27.1594ZM43.489 29.2405C43.4386 29.2405 43.3879 29.2358 43.3368 29.2241C42.97 29.1401 42.7405 28.7737 42.8243 28.4056C43.144 26.9974 43.3065 25.5441 43.3065 24.0864C43.3065 23.273 43.2554 22.4459 43.1549 21.6273C42.7888 18.6414 41.694 15.7339 39.9888 13.219C39.7773 12.907 39.858 12.4818 40.169 12.2695C40.4792 12.0576 40.9035 12.1376 41.115 12.45C42.9414 15.1436 44.1146 18.2593 44.5073 21.4605C44.6142 22.3337 44.6687 23.2173 44.6687 24.0864C44.6687 25.6463 44.495 27.2018 44.1524 28.7094C44.0802 29.0262 43.7996 29.2405 43.489 29.2405ZM25.6651 34.6496C25.3385 34.6496 25.0501 34.4131 24.9939 34.0792C24.9319 33.707 25.1819 33.3546 25.5531 33.2917C27.4789 32.967 29.2219 32.0661 30.5929 30.6866L30.6124 30.6624C30.642 30.6279 30.6716 30.593 30.7033 30.5609C30.9202 30.3353 31.1337 30.0882 31.3391 29.8247L31.3967 29.7478C31.5628 29.5297 31.726 29.2949 31.8806 29.0495C31.9157 28.9928 31.9511 28.9333 31.9862 28.8738C32.1084 28.6704 32.2276 28.451 32.3424 28.219C32.3819 28.1386 32.4227 28.0569 32.4609 27.9729C32.5464 27.7873 32.6312 27.5795 32.7211 27.3378L32.7521 27.2537C32.779 27.1837 32.8055 27.114 32.8287 27.0425C32.9012 26.8262 32.9622 26.5968 33.0119 26.401L33.0449 26.2773C33.0626 26.211 33.0807 26.1453 33.0953 26.0783C33.1222 25.9519 33.1454 25.8223 33.1658 25.6921C33.2247 25.3196 33.5728 25.0663 33.9454 25.1241C34.3169 25.1825 34.5703 25.5332 34.5114 25.9064C34.4868 26.0619 34.4593 26.2168 34.4262 26.3695C34.4065 26.4608 34.383 26.5476 34.3595 26.6341L34.3312 26.7414C34.2754 26.9602 34.2066 27.2185 34.1211 27.4749C34.0921 27.562 34.0594 27.6495 34.0267 27.737L33.9975 27.815C33.8956 28.0887 33.7979 28.3276 33.6985 28.5436C33.6552 28.639 33.6092 28.7327 33.5629 28.8266C33.4315 29.0922 33.2942 29.3441 33.1549 29.5765C33.1158 29.6428 33.0752 29.7105 33.0334 29.7782C32.8556 30.0598 32.669 30.3288 32.4776 30.5797L32.4129 30.6658C32.1772 30.9683 31.9323 31.2513 31.6841 31.5093L31.647 31.5517C31.6228 31.5797 31.5986 31.6077 31.5731 31.6348C29.9844 33.2343 27.9863 34.2672 25.7789 34.6397C25.7407 34.6466 25.7023 34.6496 25.6651 34.6496ZM15.9308 34.9255C15.361 34.9255 14.8267 34.705 14.385 34.287C13.8816 33.8109 13.41 33.2928 12.9826 32.7479C12.7496 32.4513 12.8004 32.0213 13.0963 31.7882C13.3923 31.5548 13.82 31.605 14.0526 31.9024C14.4388 32.3945 14.8652 32.8621 15.3195 33.2924C15.5061 33.4691 15.7118 33.5583 15.9308 33.5583C16.4552 33.5583 16.9698 33.0562 16.9698 32.5439C16.9698 32.3494 16.8938 32.1594 16.7443 31.9793C16.6279 31.8385 16.5063 31.7038 16.3847 31.5797C15.1866 30.3572 14.291 28.8516 13.7931 27.2244C13.6828 26.8631 13.885 26.481 14.2447 26.3702C14.6043 26.2602 14.985 26.4625 15.0957 26.8231C15.5292 28.2415 16.3108 29.554 17.3549 30.6207C17.5031 30.7711 17.6502 30.9341 17.7915 31.1046C18.1454 31.5315 18.332 32.0292 18.332 32.5439C18.332 33.8123 17.2099 34.9255 15.9308 34.9255ZM5.33205 38.7917C5.12465 38.7917 4.92032 38.6967 4.78648 38.5183C1.65509 34.329 0 29.339 0 24.0868C0 23.6007 0.0146438 23.1106 0.0432503 22.6301C0.0657268 22.2527 0.384144 21.9615 0.763521 21.9885C1.13881 22.0108 1.42522 22.3344 1.40274 22.7114C1.37584 23.165 1.36221 23.6281 1.36221 24.0868C1.36221 29.0406 2.92331 33.747 5.87591 37.698C6.10204 37.9995 6.04108 38.4277 5.74003 38.6543C5.61777 38.7473 5.47406 38.7917 5.33205 38.7917ZM25.6658 39.4131C25.2895 39.4131 24.9847 39.1072 24.9847 38.7295V37.3433C24.9847 36.9991 25.2405 36.7082 25.5814 36.6655C28.5064 36.2988 31.2298 34.8957 33.2499 32.7162L33.3187 32.6403C33.8524 32.0586 34.3404 31.4044 34.8127 30.6381C34.8686 30.5486 34.9238 30.4597 34.9759 30.3691C35.075 30.1941 35.17 30.0147 35.2619 29.8332C35.3426 29.6756 35.4179 29.5164 35.4911 29.3557L35.534 29.2621C35.5933 29.1322 35.6529 29.0027 35.7067 28.8697C35.8191 28.5949 35.9219 28.3174 36.0118 28.0443C36.13 27.6864 36.5131 27.4903 36.8724 27.6109C37.2293 27.7295 37.4231 28.1157 37.3049 28.4746C37.2051 28.7767 37.0917 29.0837 36.9674 29.3882C36.9065 29.5382 36.8394 29.6849 36.7723 29.8322L36.7294 29.9255C36.647 30.1059 36.5639 30.2813 36.4753 30.4553C36.3738 30.6549 36.269 30.8534 36.1576 31.0486C36.0966 31.1552 36.0333 31.2574 35.9703 31.3596C35.453 32.1984 34.9139 32.9199 34.323 33.5641L34.2484 33.6465C32.1476 35.9132 29.3605 37.4208 26.3469 37.9339V38.7295C26.3469 39.1072 26.0418 39.4131 25.6658 39.4131ZM15.74 43.0353C15.6457 43.0353 15.5504 43.0152 15.4587 42.9738C11.5519 41.1921 8.33709 38.2835 6.16129 34.5645C5.97093 34.2385 6.07956 33.8198 6.40377 33.6284C6.72866 33.4377 7.14584 33.547 7.3362 33.8721C9.36897 37.3477 12.3727 40.0642 16.022 41.729C16.3646 41.8852 16.5162 42.2906 16.3609 42.6341C16.2464 42.886 15.9989 43.0353 15.74 43.0353ZM31.8271 43.2203C31.5622 43.2203 31.3105 43.0641 31.2002 42.8043C31.0527 42.4564 31.2138 42.0555 31.5594 41.9075C35.2476 40.3308 38.3143 37.6854 40.4292 34.259C40.627 33.938 41.0466 33.8389 41.3667 34.0378C41.6868 34.2364 41.7856 34.6578 41.5874 34.9788C39.3241 38.6468 36.0411 41.4775 32.0938 43.1652C32.0066 43.2025 31.916 43.2203 31.8271 43.2203ZM25.6658 44.3502C25.2895 44.3502 24.9847 44.0446 24.9847 43.6666V42.8439C24.9847 42.4666 25.2895 42.1604 25.6658 42.1604C26.0418 42.1604 26.3469 42.4666 26.3469 42.8439V43.6666C26.3469 44.0446 26.0418 44.3502 25.6658 44.3502ZM22.3345 44.7552C22.3158 44.7552 22.2967 44.7545 22.278 44.7528C22.1789 44.7446 22.0798 44.735 21.9807 44.7258C21.6064 44.6896 21.3323 44.3553 21.3691 43.9794C21.3888 43.7739 21.4978 43.5983 21.6534 43.4875V33.4913C21.6534 33.1137 21.9582 32.8078 22.3345 32.8078C22.7105 32.8078 23.0156 33.1137 23.0156 33.4913V44.0716C23.0156 44.263 22.9356 44.4452 22.7956 44.5747C22.6693 44.6913 22.5048 44.7552 22.3345 44.7552ZM35.2446 45.271C35.0045 45.271 34.7715 45.1435 34.6472 44.9176C34.4657 44.5867 34.5856 44.1708 34.9149 43.9886C39.6111 41.3907 43.2483 37.1997 45.1557 32.1871C45.2899 31.8337 45.6825 31.657 46.035 31.7923C46.3865 31.927 46.5625 32.3221 46.4283 32.6745C44.4058 37.9889 40.5507 42.4321 35.5729 45.1862C35.4683 45.2436 35.3556 45.271 35.2446 45.271ZM30.7172 47.1802C30.4244 47.1802 30.154 46.9888 30.0654 46.6931C29.9568 46.3312 30.1611 45.9504 30.5214 45.8417C30.7762 45.7648 31.0289 45.6838 31.2798 45.5984C31.6381 45.4757 32.0229 45.6695 32.1435 46.0267C32.2644 46.3845 32.073 46.7717 31.7168 46.8934C31.4511 46.9837 31.1831 47.0694 30.9137 47.1508C30.8484 47.1699 30.7823 47.1802 30.7172 47.1802ZM21.2185 48.0001C21.1916 48.0001 21.1644 47.9984 21.1371 47.9957C16.9316 47.4933 12.9196 45.8701 9.53482 43.3016C9.23479 43.0736 9.17519 42.645 9.402 42.3436C9.62881 42.0425 10.0555 41.9833 10.3562 42.211C13.5489 44.6339 17.3325 46.1644 21.2982 46.6378C21.6715 46.6825 21.9381 47.0226 21.8942 47.3976C21.8526 47.7448 21.5587 48.0001 21.2185 48.0001Z" stroke="#005ABC" stroke-width="2" mask="url(#path-1-inside-1_2794_27720)"/>
<path fill-rule="evenodd" clip-rule="evenodd" d="M17.37 9.66538C17.1081 9.66538 16.8589 9.51294 16.7465 9.25729C16.5949 8.91174 16.7509 8.50809 17.0949 8.356C17.3547 8.24116 17.6176 8.13247 17.8829 8.03028C18.233 7.89527 18.6273 8.06992 18.7629 8.42265C18.8981 8.77503 18.723 9.17047 18.3716 9.30582C18.1271 9.40084 17.8843 9.50098 17.6445 9.60693C17.5549 9.64624 17.462 9.66538 17.37 9.66538ZM36.6862 14.2648C36.4897 14.2648 36.2946 14.18 36.1601 14.016C34.0255 11.415 31.1727 9.59736 27.9091 8.75896C27.3101 8.60516 26.6995 8.48554 26.0943 8.40385C25.7214 8.35292 25.4602 8.00875 25.5103 7.63483C25.561 7.26024 25.9077 7.00048 26.2765 7.04867C26.9338 7.13753 27.5965 7.26741 28.2466 7.43455C31.7925 8.3454 34.8922 10.3206 37.2117 13.1468C37.4508 13.438 37.4092 13.869 37.1187 14.1089C36.992 14.2139 36.8384 14.2648 36.6862 14.2648ZM7.61555 26.258C7.26716 26.258 6.96986 25.9911 6.93785 25.636C6.89221 25.1284 6.86905 24.6113 6.86871 24.0986C6.86871 22.6648 7.04989 21.2266 7.40781 19.8239C8.35455 16.1118 10.4411 12.9052 13.4421 10.5509C13.7377 10.3185 14.1661 10.3705 14.3977 10.6685C14.6296 10.9659 14.5775 11.3955 14.2809 11.6276C11.5193 13.7948 9.59927 16.7461 8.72746 20.163C8.3978 21.4549 8.23093 22.7793 8.23093 24.0986C8.23127 24.5696 8.25272 25.0461 8.29495 25.5129C8.32833 25.8889 8.05248 26.2208 7.67753 26.2553C7.65675 26.257 7.63598 26.258 7.61555 26.258ZM36.519 35.4784C36.3627 35.4784 36.2054 35.4251 36.0773 35.3153C35.7909 35.0703 35.7568 34.6383 36.001 34.3519C37.5683 32.5086 38.6686 30.3752 39.272 28.01C39.6014 26.7184 39.7686 25.3943 39.7686 24.0747C39.7686 22.5418 39.5452 21.0181 39.1041 19.5461C38.9958 19.1848 39.2002 18.803 39.5602 18.6947C39.9215 18.5867 40.3005 18.791 40.4085 19.1523C40.8883 20.7522 41.1308 22.4085 41.1308 24.0747C41.1308 25.5085 40.9493 26.9467 40.5917 28.3491C39.9365 30.9179 38.7404 33.2363 37.0373 35.2388C36.9025 35.3974 36.7114 35.4784 36.519 35.4784ZM32.8175 38.7024C32.5924 38.7024 32.3721 38.5903 32.242 38.3849C32.0404 38.0671 32.1344 37.6439 32.4518 37.4419C32.6731 37.3001 32.8911 37.1542 33.105 37.0017C33.4125 36.7847 33.8375 36.8582 34.0544 37.1661C34.2714 37.4744 34.1981 37.9006 33.8913 38.119C33.6587 38.2831 33.4227 38.4427 33.1823 38.5958C33.0692 38.6676 32.9429 38.7024 32.8175 38.7024ZM18.6049 40.3628C18.531 40.3628 18.4557 40.3509 18.3821 40.3252C14.2945 38.9061 10.9199 36.0058 8.87934 32.1596C8.70293 31.8271 8.8286 31.4132 9.16098 31.2351C9.49302 31.0581 9.90509 31.1852 10.0822 31.5181C11.96 35.058 15.0658 37.7273 18.8276 39.0336C19.1831 39.1567 19.3715 39.5463 19.2485 39.9031C19.1508 40.1858 18.8872 40.3628 18.6049 40.3628Z" stroke="#005ABC" stroke-width="2" mask="url(#path-1-inside-1_2794_27720)"/>
<path fill-rule="evenodd" clip-rule="evenodd" d="M22.779 23.4363C22.8982 23.1048 22.8022 22.734 22.5379 22.5029C21.8738 21.9212 21.6038 21.0503 21.8153 20.1719C22.0097 19.3639 22.6833 18.6958 23.4915 18.5091C23.6624 18.4695 23.8327 18.4493 24.0003 18.4456C24.0122 18.4452 24.0238 18.4439 24.0357 18.4442C24.0479 18.4439 24.0595 18.4452 24.0714 18.4456C24.239 18.4493 24.4093 18.4695 24.5802 18.5091C25.3884 18.6958 26.062 19.3639 26.2564 20.1719C26.4679 21.0503 26.1979 21.9212 25.5338 22.5029C25.2692 22.734 25.1735 23.1048 25.2927 23.4363L27.1616 28.6414H20.9101L22.779 23.4363ZM27.6513 30.3503C28.093 30.3503 28.5088 30.1336 28.7629 29.7703C28.9448 29.5102 29.0268 29.1971 29.0044 28.8875C29.0153 28.7678 29.0023 28.6441 28.9591 28.5241L27.1051 23.3611C27.7174 22.6383 28.06 21.7178 28.06 20.7591C28.06 19.526 27.5083 18.3779 26.5462 17.6092C26.3736 17.4715 26.189 17.3553 25.9996 17.2493C25.9874 17.2421 25.9748 17.2357 25.9625 17.2288C25.8229 17.1526 25.6799 17.0853 25.5327 17.0265C25.5096 17.0173 25.4868 17.0067 25.4633 16.9978C25.042 16.8388 24.5966 16.7524 24.1419 16.7418C24.1062 16.7407 24.0711 16.7363 24.0357 16.7363C24.0006 16.7363 23.9648 16.7407 23.9298 16.7418C23.4751 16.7524 23.0293 16.8388 22.6084 16.9978C22.5849 17.0067 22.5621 17.0173 22.5386 17.0265C22.3918 17.0853 22.2488 17.1526 22.1092 17.2288C22.0969 17.2357 22.0843 17.2421 22.072 17.2493C21.8827 17.3553 21.6981 17.4715 21.5255 17.6092C20.5634 18.3779 20.0117 19.526 20.0117 20.7591C20.0117 21.7178 20.3543 22.6383 20.9666 23.3611L19.1123 28.5241C19.069 28.6441 19.0564 28.7678 19.0673 28.8871C19.0445 29.1971 19.1263 29.5102 19.3088 29.7703C19.5628 30.1336 19.9783 30.3503 20.4204 30.3503H27.6513Z" stroke="#005ABC" stroke-width="2" mask="url(#path-1-inside-1_2794_27720)"/>
</svg>
